<svg xmlns="http://www.w3.org/2000/svg" xmlns:xlink="http://www.w3.org/1999/xlink" id="processonSvg1000" width="566.75" height="226" viewBox="429.625 274 566.75 226"><defs id="ProcessOnDefs1001"><marker id="ProcessOnMarker1007" markerHeight="10.551" markerUnits="userSpaceOnUse" markerWidth="16.236" orient="auto" refX="-1" refY="3.899" viewBox="-1 -1.376 16.236 10.551"><path id="ProcessOnPath1008" fill="#323232" stroke="#323232" stroke-width="2" d="M12.0 3.8990363547948754L0.0 7.798072709589751V0.0Z" transform="matrix(1.0,0.0,0.0,1.0,0.0,0.0)"/></marker><marker id="ProcessOnMarker1033" markerHeight="10.551" markerUnits="userSpaceOnUse" markerWidth="16.236" orient="auto" refX="-1" refY="3.899" viewBox="-1 -1.376 16.236 10.551"><path id="ProcessOnPath1034" fill="#323232" stroke="#323232" stroke-width="2" d="M12.0 3.8990363547948754L0.0 7.798072709589751V0.0Z" transform="matrix(1.0,0.0,0.0,1.0,0.0,0.0)"/></marker></defs><g id="ProcessOnG1002"><path id="ProcessOnPath1003" fill="none" d="M429.625 274.0H996.375V500.0H429.625V274.0Z"/><g id="ProcessOnG1004"><g id="ProcessOnG1005"><path id="ProcessOnPath1006" fill="none" stroke="#323232" stroke-dasharray="none" stroke-width="2" marker-end="url(#ProcessOnMarker1007)" d="M708.25 370.0L665.8125 370.0L665.8125 370.0L638.6110679774998 370.0"/></g><g id="ProcessOnG1009" opacity="1" transform="matrix(1.0,0.0,0.0,1.0,449.625,294.0)"><path id="ProcessOnPath1010" fill="#fff" stroke="#dadada" stroke-dasharray="none" stroke-width="2" d="M0.0 4.0Q0.0 0.0 4.0 0.0L169.75 0.0Q173.75 0.0 173.75 4.0L173.75 148.0Q173.75 152.0 169.75 152.0L4.0 152.0Q0.0 152.0 0.0 148.0Z" opacity="1"/><path id="ProcessOnPath1011" fill="#dadada" stroke="#dadada" stroke-dasharray="none" stroke-width="2" d="M0.0 30.0L0.0 4.0Q0.0 0.0 4.0 0.0L169.75 0.0Q173.75 0.0 173.75 4.0L173.75 30.0Z" opacity="1"/><path id="ProcessOnPath1012" fill="#fff" stroke="none" stroke-dasharray="none" stroke-width="0" d="M10.0 15.0C10.0 10.0 18.0 10.0 18.0 15.0C18.0 20.0 10.0 20.0 10.0 15.0Z" opacity="1"/><path id="ProcessOnPath1013" fill="#fff" stroke="none" stroke-dasharray="none" stroke-width="0" d="M23.0 15.0C23.0 10.0 31.0 10.0 31.0 15.0C31.0 20.0 23.0 20.0 23.0 15.0Z" opacity="1"/><path id="ProcessOnPath1014" fill="#fff" stroke="none" stroke-dasharray="none" stroke-width="0" d="M36.0 15.0C36.0 10.0 44.0 10.0 44.0 15.0C44.0 20.0 36.0 20.0 36.0 15.0Z" opacity="1"/><path id="ProcessOnPath1015" fill="#fff" stroke="none" stroke-dasharray="none" stroke-width="0" d="M55.0 9.0Q55.0 5.0 59.0 5.0L164.75 5.0Q168.75 5.0 168.75 9.0L168.75 21.0Q168.75 25.0 164.75 25.0L59.0 25.0Q55.0 25.0 55.0 21.0Z" opacity="1"/><path id="ProcessOnPath1016" fill="none" stroke="none" stroke-dasharray="none" stroke-width="0" d="M0.0 0.0L173.75 0.0L173.75 152.0L0.0 152.0Z" opacity="1"/><g id="ProcessOnG1017" transform="matrix(1.0,0.0,0.0,1.0,60.0,6.875)"><text id="ProcessOnText1018" x="0" y="13.325" fill="#000" family="Tahoma" font-family="Tahoma" font-size="13" font-style="normal" font-weight="normal" size="13" text-anchor="start" text-decoration="none">my-site</text></g></g><g id="ProcessOnG1019" opacity="1" transform="matrix(1.0,0.0,0.0,1.0,490.0,338.5)"><path id="ProcessOnPath1020" fill="#fff" stroke="#8a8a8a" stroke-dasharray="none" stroke-width="2" d="M0.0 0.0L93.0 0.0L93.0 90.5L0.0 90.5Z" opacity="1"/><path id="ProcessOnPath1021" fill="#505050" stroke="#505050" stroke-dasharray="none" stroke-width="1" d="M61.53846153846153 21.3125C76.53846153846153 21.3125 76.53846153846153 43.3125 61.53846153846153 43.3125C46.53846153846153 43.3125 46.53846153846153 21.3125 61.53846153846153 21.3125Z" opacity="1"/><path id="ProcessOnPath1022" fill="#505050" stroke="none" stroke-dasharray="none" stroke-width="0" d="M30.0 60.5L31.0 40.0L46.5 45.25L58.125 36.2L63.0 60.5Z" opacity="1"/><path id="ProcessOnPath1023" fill="none" stroke="none" stroke-dasharray="none" stroke-width="0" d="M0.0 0.0L93.0 0.0L93.0 90.5L0.0 90.5Z" opacity="1"/></g><g id="ProcessOnG1024" opacity="1" transform="matrix(1.0,0.0,0.0,1.0,708.25,294.0)"><path id="ProcessOnPath1025" fill="#e5e5e5" stroke="#323232" stroke-dasharray="none" stroke-width="2" d="M0.0 0.0L88.875 0.0L88.875 152.0L0.0 152.0Z" opacity="1"/></g><g id="ProcessOnG1026" opacity="1" transform="matrix(1.0,0.0,0.0,1.0,886.375,336.0)"><path id="ProcessOnPath1027" fill="#fff" stroke="#323232" stroke-dasharray="none" stroke-width="2" d="M10.799999999999999 49.0C-9.0 35.0 3.6 24.5 8.1 21.0C6.300000000000001 3.5 28.8 0.0 37.8 7.0C45.0 -3.5 67.5 0.0 67.5 10.5C85.5 7.0 92.7 21.0 85.5 38.5C91.8 52.5 85.5 70.0 64.8 63.0C60.300000000000004 72.10000000000001 42.3 72.10000000000001 37.8 63.0C28.8 70.0 10.799999999999999 66.5 10.799999999999999 49.0Z" opacity="1"/><g id="ProcessOnG1028" transform="matrix(1.0,0.0,0.0,1.0,10.0,18.75)"><text id="ProcessOnText1029" x="34" y="13.325" fill="#000" family="Tahoma" font-family="Tahoma" font-size="13" font-style="normal" font-weight="normal" size="13" text-anchor="middle" text-decoration="none">unsafe</text><text id="ProcessOnText1030" x="34" y="29.575" fill="#000" family="Tahoma" font-family="Tahoma" font-size="13" font-style="normal" font-weight="normal" size="13" text-anchor="middle" text-decoration="none">free-host</text></g></g><g id="ProcessOnG1031"><path id="ProcessOnPath1032" fill="none" stroke="#323232" stroke-dasharray="none" stroke-width="2" marker-end="url(#ProcessOnMarker1033)" d="M886.375 371.0L841.75 371.0L841.75 370.0L812.3610679774998 370.0"/></g><g id="ProcessOnG1035" opacity="1" transform="matrix(1.0,0.0,0.0,1.0,806.875,386.0)"><path id="ProcessOnPath1036" fill="none" stroke="none" stroke-dasharray="none" stroke-width="0" d="M0.0 0.0L82.5 0.0L82.5 29.0L0.0 29.0Z" opacity="1"/><g id="ProcessOnG1037" transform="matrix(1.0,0.0,0.0,1.0,0.0,6.375)"><text id="ProcessOnText1038" x="40.25" y="13.325" fill="#000" family="Tahoma" font-family="Tahoma" font-size="13" font-style="normal" font-weight="normal" size="13" text-anchor="middle" text-decoration="none">encrypted</text></g></g><g id="ProcessOnG1039" opacity="1" transform="matrix(1.0,0.0,0.0,1.0,650.625,347.5)"><path id="ProcessOnPath1040" fill="#e5e5e5" stroke="#323232" stroke-dasharray="none" stroke-width="2" d="M0.0 20.0C0.0 -6.666666666666667 40.0 -6.666666666666667 40.0 20.0C40.0 46.666666666666664 0.0 46.666666666666664 0.0 20.0Z" opacity="1"/></g><g id="ProcessOnG1041" opacity="1" transform="matrix(1.0,0.0,0.0,1.0,628.625,387.5)"><path id="ProcessOnPath1042" fill="none" stroke="none" stroke-dasharray="none" stroke-width="0" d="M0.0 0.0L82.5 0.0L82.5 29.0L0.0 29.0Z" opacity="1"/><g id="ProcessOnG1043" transform="matrix(1.0,0.0,0.0,1.0,0.0,6.375)"><text id="ProcessOnText1044" x="40.25" y="13.325" fill="#000" family="Tahoma" font-family="Tahoma" font-size="13" font-style="normal" font-weight="normal" size="13" text-anchor="middle" text-decoration="none">plain</text></g></g><g id="ProcessOnG1045" opacity="1" transform="matrix(1.0,0.0,0.0,1.0,828.125,347.5)"><path id="ProcessOnPath1046" fill="#323232" stroke="none" stroke-dasharray="none" stroke-width="0" d="M0.0 20.0C0.0 -6.666666666666667 40.0 -6.666666666666667 40.0 20.0C40.0 46.666666666666664 0.0 46.666666666666664 0.0 20.0Z" opacity="1"/></g><g id="ProcessOnG1047" opacity="1" transform="matrix(1.0,0.0,0.0,1.0,716.578125,356.25)"><path id="ProcessOnPath1048" fill="#fff" stroke="#000" stroke-dasharray="none" stroke-width="1" d="M0.0 0.0L71.0 0.0L71.0 28.0L0.0 28.0Z" opacity="1"/><g id="ProcessOnG1049" transform="matrix(1.0,0.0,0.0,1.0,10.0,5.875)"><text id="ProcessOnText1050" x="24.5" y="13.325" fill="#000" family="Tahoma" font-family="Tahoma" font-size="13" font-style="normal" font-weight="bold" size="13" text-anchor="middle" text-decoration="none">decrypt</text></g></g><g id="ProcessOnG1051" opacity="1" transform="matrix(1.0,0.0,0.0,1.0,698.5,446.0)"><path id="ProcessOnPath1052" fill="none" stroke="none" stroke-dasharray="none" stroke-width="0" d="M0.0 0.0L106.0 0.0L106.0 34.0L0.0 34.0Z" opacity="1"/><g id="ProcessOnG1053" transform="matrix(1.0,0.0,0.0,1.0,0.0,8.875)"><text id="ProcessOnText1054" x="52" y="13.325" fill="#000" family="Tahoma" font-family="Tahoma" font-size="13" font-style="normal" font-weight="normal" size="13" text-anchor="middle" text-decoration="none">Service Worker</text></g></g></g></g></svg>