<svg xmlns="http://www.w3.org/2000/svg" xmlns:xlink="http://www.w3.org/1999/xlink" id="processonSvg1000" width="608.75" height="229.5" viewBox="249.625 205.25 608.75 229.5"><defs id="ProcessOnDefs1001"><marker id="ProcessOnMarker1029" markerHeight="10.551" markerUnits="userSpaceOnUse" markerWidth="16.236" orient="auto" refX="15.236" refY="3.899" viewBox="-1 -1.376 16.236 10.551"><path id="ProcessOnPath1030" fill="#323232" stroke="#323232" stroke-width="2" d="M12.0 3.8990363547948754L0.0 7.798072709589751V0.0Z" transform="matrix(-1.0,1.2246467991473532E-16,-1.2246467991473532E-16,-1.0,14.23606797749979,7.798072709589751)"/></marker><marker id="ProcessOnMarker1033" markerHeight="10.551" markerUnits="userSpaceOnUse" markerWidth="16.236" orient="auto" refX="15.236" refY="3.899" viewBox="-1 -1.376 16.236 10.551"><path id="ProcessOnPath1034" fill="#323232" stroke="#323232" stroke-width="2" d="M12.0 3.8990363547948754L0.0 7.798072709589751V0.0Z" transform="matrix(-1.0,1.2246467991473532E-16,-1.2246467991473532E-16,-1.0,14.23606797749979,7.798072709589751)"/></marker><marker id="ProcessOnMarker1053" markerHeight="10.551" markerUnits="userSpaceOnUse" markerWidth="16.236" orient="auto" refX="-1" refY="3.899" viewBox="-1 -1.376 16.236 10.551"><path id="ProcessOnPath1054" fill="#323232" stroke="#323232" stroke-width="2" d="M12.0 3.8990363547948754L0.0 7.798072709589751V0.0Z" transform="matrix(1.0,0.0,0.0,1.0,0.0,0.0)"/></marker><marker id="ProcessOnMarker1057" markerHeight="10.551" markerUnits="userSpaceOnUse" markerWidth="16.236" orient="auto" refX="-1" refY="3.899" viewBox="-1 -1.376 16.236 10.551"><path id="ProcessOnPath1058" fill="#323232" stroke="#323232" stroke-width="2" d="M12.0 3.8990363547948754L0.0 7.798072709589751V0.0Z" transform="matrix(1.0,0.0,0.0,1.0,0.0,0.0)"/></marker></defs><g id="ProcessOnG1002"><path id="ProcessOnPath1003" fill="none" d="M249.625 205.25H858.375V434.75H249.625V205.25Z"/><g id="ProcessOnG1004"><g id="ProcessOnG1005" opacity="1" transform="matrix(1.0,0.0,0.0,1.0,269.625,225.25)"><path id="ProcessOnPath1006" fill="#fff" stroke="#dadada" stroke-dasharray="none" stroke-width="2" d="M0.0 4.0Q0.0 0.0 4.0 0.0L169.75 0.0Q173.75 0.0 173.75 4.0L173.75 148.0Q173.75 152.0 169.75 152.0L4.0 152.0Q0.0 152.0 0.0 148.0Z" opacity="1"/><path id="ProcessOnPath1007" fill="#dadada" stroke="#dadada" stroke-dasharray="none" stroke-width="2" d="M0.0 30.0L0.0 4.0Q0.0 0.0 4.0 0.0L169.75 0.0Q173.75 0.0 173.75 4.0L173.75 30.0Z" opacity="1"/><path id="ProcessOnPath1008" fill="#fff" stroke="none" stroke-dasharray="none" stroke-width="0" d="M10.0 15.0C10.0 10.0 18.0 10.0 18.0 15.0C18.0 20.0 10.0 20.0 10.0 15.0Z" opacity="1"/><path id="ProcessOnPath1009" fill="#fff" stroke="none" stroke-dasharray="none" stroke-width="0" d="M23.0 15.0C23.0 10.0 31.0 10.0 31.0 15.0C31.0 20.0 23.0 20.0 23.0 15.0Z" opacity="1"/><path id="ProcessOnPath1010" fill="#fff" stroke="none" stroke-dasharray="none" stroke-width="0" d="M36.0 15.0C36.0 10.0 44.0 10.0 44.0 15.0C44.0 20.0 36.0 20.0 36.0 15.0Z" opacity="1"/><path id="ProcessOnPath1011" fill="#fff" stroke="none" stroke-dasharray="none" stroke-width="0" d="M55.0 9.0Q55.0 5.0 59.0 5.0L164.75 5.0Q168.75 5.0 168.75 9.0L168.75 21.0Q168.75 25.0 164.75 25.0L59.0 25.0Q55.0 25.0 55.0 21.0Z" opacity="1"/><path id="ProcessOnPath1012" fill="none" stroke="none" stroke-dasharray="none" stroke-width="0" d="M0.0 0.0L173.75 0.0L173.75 152.0L0.0 152.0Z" opacity="1"/><g id="ProcessOnG1013" transform="matrix(1.0,0.0,0.0,1.0,60.0,6.875)"><text id="ProcessOnText1014" x="0" y="13.325" fill="#000" family="Tahoma" font-family="Tahoma" font-size="13" font-style="normal" font-weight="normal" size="13" text-anchor="start" text-decoration="none">my-site</text></g></g><g id="ProcessOnG1015" opacity="1" transform="matrix(1.0,0.0,0.0,1.0,310.0,269.75)"><path id="ProcessOnPath1016" fill="#fff" stroke="#8a8a8a" stroke-dasharray="none" stroke-width="2" d="M0.0 0.0L93.0 0.0L93.0 90.5L0.0 90.5Z" opacity="1"/><path id="ProcessOnPath1017" fill="#505050" stroke="#505050" stroke-dasharray="none" stroke-width="1" d="M61.53846153846153 21.3125C76.53846153846153 21.3125 76.53846153846153 43.3125 61.53846153846153 43.3125C46.53846153846153 43.3125 46.53846153846153 21.3125 61.53846153846153 21.3125Z" opacity="1"/><path id="ProcessOnPath1018" fill="#505050" stroke="none" stroke-dasharray="none" stroke-width="0" d="M30.0 60.5L31.0 40.0L46.5 45.25L58.125 36.2L63.0 60.5Z" opacity="1"/><path id="ProcessOnPath1019" fill="none" stroke="none" stroke-dasharray="none" stroke-width="0" d="M0.0 0.0L93.0 0.0L93.0 90.5L0.0 90.5Z" opacity="1"/></g><g id="ProcessOnG1020" opacity="1" transform="matrix(1.0,0.0,0.0,1.0,550.375,225.25)"><path id="ProcessOnPath1021" fill="#e5e5e5" stroke="#323232" stroke-dasharray="none" stroke-width="2" d="M0.0 0.0L86.5 0.0L86.5 152.0L0.0 152.0Z" opacity="1"/></g><g id="ProcessOnG1022" opacity="1" transform="matrix(1.0,0.0,0.0,1.0,748.375,266.25)"><path id="ProcessOnPath1023" fill="#fff" stroke="#323232" stroke-dasharray="none" stroke-width="2" d="M10.799999999999999 49.0C-9.0 35.0 3.6 24.5 8.1 21.0C6.300000000000001 3.5 28.8 0.0 37.8 7.0C45.0 -3.5 67.5 0.0 67.5 10.5C85.5 7.0 92.7 21.0 85.5 38.5C91.8 52.5 85.5 70.0 64.8 63.0C60.300000000000004 72.10000000000001 42.3 72.10000000000001 37.8 63.0C28.8 70.0 10.799999999999999 66.5 10.799999999999999 49.0Z" opacity="1"/><g id="ProcessOnG1024" transform="matrix(1.0,0.0,0.0,1.0,10.0,18.75)"><text id="ProcessOnText1025" x="34" y="13.325" fill="#000" family="Tahoma" font-family="Tahoma" font-size="13" font-style="normal" font-weight="normal" size="13" text-anchor="middle" text-decoration="none">unsafe</text><text id="ProcessOnText1026" x="34" y="29.575" fill="#000" family="Tahoma" font-family="Tahoma" font-size="13" font-style="normal" font-weight="normal" size="13" text-anchor="middle" text-decoration="none">free-host</text></g></g><g id="ProcessOnG1027"><path id="ProcessOnPath1028" fill="none" stroke="#323232" stroke-dasharray="none" stroke-width="2" marker-start="url(#ProcessOnMarker1029)" d="M748.4392315257608 272.45446773125275L636.0886363636364 271.75"/></g><g id="ProcessOnG1031"><path id="ProcessOnPath1032" fill="none" stroke="#323232" stroke-dasharray="none" stroke-width="2" marker-start="url(#ProcessOnMarker1033)" d="M535.9252956588638 271.75L497.2681818181818 271.75L497.2681818181818 271.75L443.375 271.75"/></g><g id="ProcessOnG1035" opacity="1" transform="matrix(1.0,0.0,0.0,1.0,658.875,343.75)"><path id="ProcessOnPath1036" fill="none" stroke="none" stroke-dasharray="none" stroke-width="0" d="M0.0 0.0L82.5 0.0L82.5 29.0L0.0 29.0Z" opacity="1"/><g id="ProcessOnG1037" transform="matrix(1.0,0.0,0.0,1.0,0.0,6.375)"><text id="ProcessOnText1038" x="40.25" y="13.325" fill="#000" family="Tahoma" font-family="Tahoma" font-size="13" font-style="normal" font-weight="normal" size="13" text-anchor="middle" text-decoration="none">encrypted</text></g></g><g id="ProcessOnG1039" opacity="1" transform="matrix(1.0,0.0,0.0,1.0,457.875,343.75)"><path id="ProcessOnPath1040" fill="none" stroke="none" stroke-dasharray="none" stroke-width="0" d="M0.0 0.0L82.5 0.0L82.5 29.0L0.0 29.0Z" opacity="1"/><g id="ProcessOnG1041" transform="matrix(1.0,0.0,0.0,1.0,0.0,6.375)"><text id="ProcessOnText1042" x="40.25" y="13.325" fill="#000" family="Tahoma" font-family="Tahoma" font-size="13" font-style="normal" font-weight="normal" size="13" text-anchor="middle" text-decoration="none">plain</text></g></g><g id="ProcessOnG1043" opacity="1" transform="matrix(1.0,0.0,0.0,1.0,453.875,237.75)"><path id="ProcessOnPath1044" fill="none" stroke="none" stroke-dasharray="none" stroke-width="0" d="M0.0 0.0L82.5 0.0L82.5 29.0L0.0 29.0Z" opacity="1"/><g id="ProcessOnG1045" transform="matrix(1.0,0.0,0.0,1.0,0.0,6.375)"><text id="ProcessOnText1046" x="40.25" y="13.325" fill="#000" family="Tahoma" font-family="Tahoma" font-size="13" font-style="normal" font-weight="normal" size="13" text-anchor="middle" text-decoration="none">/img/abc.jpg</text></g></g><g id="ProcessOnG1047" opacity="1" transform="matrix(1.0,0.0,0.0,1.0,658.875,240.75)"><path id="ProcessOnPath1048" fill="none" stroke="none" stroke-dasharray="none" stroke-width="0" d="M0.0 0.0L82.5 0.0L82.5 29.0L0.0 29.0Z" opacity="1"/><g id="ProcessOnG1049" transform="matrix(1.0,0.0,0.0,1.0,0.0,6.375)"><text id="ProcessOnText1050" x="40.25" y="13.325" fill="#000" family="Tahoma" font-family="Tahoma" font-size="13" font-style="normal" font-weight="normal" size="13" text-anchor="middle" text-decoration="none">/ebaf8da4</text></g></g><g id="ProcessOnG1051"><path id="ProcessOnPath1052" fill="none" stroke="#323232" stroke-dasharray="none" stroke-width="2" marker-end="url(#ProcessOnMarker1053)" d="M551.125 326.75L497.25 326.75L497.25 326.75L458.6110679774998 326.75"/></g><g id="ProcessOnG1055"><path id="ProcessOnPath1056" fill="none" stroke="#323232" stroke-dasharray="none" stroke-width="2" marker-end="url(#ProcessOnMarker1057)" d="M765.4749999999999 329.25L765.4749999999999 330.75L651.3610679774998 330.75"/></g><g id="ProcessOnG1059" opacity="1" transform="matrix(1.0,0.0,0.0,1.0,479.125,308.75)"><path id="ProcessOnPath1060" fill="#e5e5e5" stroke="#323232" stroke-dasharray="none" stroke-width="2" d="M0.0 20.0C0.0 -6.666666666666667 40.0 -6.666666666666667 40.0 20.0C40.0 46.666666666666664 0.0 46.666666666666664 0.0 20.0Z" opacity="1"/></g><g id="ProcessOnG1061" opacity="1" transform="matrix(1.0,0.0,0.0,1.0,680.125,308.75)"><path id="ProcessOnPath1062" fill="#323232" stroke="none" stroke-dasharray="none" stroke-width="0" d="M0.0 20.0C0.0 -6.666666666666667 40.0 -6.666666666666667 40.0 20.0C40.0 46.666666666666664 0.0 46.666666666666664 0.0 20.0Z" opacity="1"/></g><g id="ProcessOnG1063" opacity="1" transform="matrix(1.0,0.0,0.0,1.0,558.125,313.25)"><path id="ProcessOnPath1064" fill="#fff" stroke="#000" stroke-dasharray="none" stroke-width="1" d="M0.0 0.0L71.0 0.0L71.0 28.0L0.0 28.0Z" opacity="1"/><g id="ProcessOnG1065" transform="matrix(1.0,0.0,0.0,1.0,10.0,5.875)"><text id="ProcessOnText1066" x="24.5" y="13.325" fill="#000" family="Tahoma" font-family="Tahoma" font-size="13" font-style="normal" font-weight="bold" size="13" text-anchor="middle" text-decoration="none">decrypt</text></g></g><g id="ProcessOnG1067" opacity="1" transform="matrix(1.0,0.0,0.0,1.0,558.125,256.75)"><path id="ProcessOnPath1068" fill="#fff" stroke="#000" stroke-dasharray="none" stroke-width="1" d="M0.0 0.0L71.0 0.0L71.0 28.0L0.0 28.0Z" opacity="1"/><g id="ProcessOnG1069" transform="matrix(1.0,0.0,0.0,1.0,10.0,5.875)"><text id="ProcessOnText1070" x="24.5" y="13.325" fill="#000" family="Tahoma" font-family="Tahoma" font-size="13" font-style="normal" font-weight="bold" size="13" text-anchor="middle" text-decoration="none">hash</text></g></g><g id="ProcessOnG1071" opacity="1" transform="matrix(1.0,0.0,0.0,1.0,540.625,380.75)"><path id="ProcessOnPath1072" fill="none" stroke="none" stroke-dasharray="none" stroke-width="0" d="M0.0 0.0L106.0 0.0L106.0 34.0L0.0 34.0Z" opacity="1"/><g id="ProcessOnG1073" transform="matrix(1.0,0.0,0.0,1.0,0.0,8.875)"><text id="ProcessOnText1074" x="52" y="13.325" fill="#000" family="Tahoma" font-family="Tahoma" font-size="13" font-style="normal" font-weight="normal" size="13" text-anchor="middle" text-decoration="none">Service Worker</text></g></g></g></g></svg>