<svg xmlns="http://www.w3.org/2000/svg" xmlns:xlink="http://www.w3.org/1999/xlink" id="processonSvg1000" width="580.75" height="330.375" viewBox="422.625 183.813 580.75 330.375"><defs id="ProcessOnDefs1001"><marker id="ProcessOnMarker1027" markerHeight="10.551" markerUnits="userSpaceOnUse" markerWidth="16.236" orient="auto" refX="15.236" refY="3.899" viewBox="-1 -1.376 16.236 10.551"><path id="ProcessOnPath1028" fill="#323232" stroke="#323232" stroke-width="2" d="M12.0 3.8990363547948754L0.0 7.798072709589751V0.0Z" transform="matrix(-1.0,1.2246467991473532E-16,-1.2246467991473532E-16,-1.0,14.23606797749979,7.798072709589751)"/></marker><marker id="ProcessOnMarker1031" markerHeight="10.551" markerUnits="userSpaceOnUse" markerWidth="16.236" orient="auto" refX="15.236" refY="3.899" viewBox="-1 -1.376 16.236 10.551"><path id="ProcessOnPath1032" fill="#323232" stroke="#323232" stroke-width="2" d="M12.0 3.8990363547948754L0.0 7.798072709589751V0.0Z" transform="matrix(-1.0,1.2246467991473532E-16,-1.2246467991473532E-16,-1.0,14.23606797749979,7.798072709589751)"/></marker><marker id="ProcessOnMarker1039" markerHeight="10.551" markerUnits="userSpaceOnUse" markerWidth="16.236" orient="auto" refX="15.236" refY="3.899" viewBox="-1 -1.376 16.236 10.551"><path id="ProcessOnPath1040" fill="#323232" stroke="#323232" stroke-width="2" d="M12.0 3.8990363547948754L0.0 7.798072709589751V0.0Z" transform="matrix(-1.0,1.2246467991473532E-16,-1.2246467991473532E-16,-1.0,14.23606797749979,7.798072709589751)"/></marker><marker id="ProcessOnMarker1051" markerHeight="10.551" markerUnits="userSpaceOnUse" markerWidth="16.236" orient="auto" refX="15.236" refY="3.899" viewBox="-1 -1.376 16.236 10.551"><path id="ProcessOnPath1052" fill="#323232" stroke="#323232" stroke-width="2" d="M12.0 3.8990363547948754L0.0 7.798072709589751V0.0Z" transform="matrix(-1.0,1.2246467991473532E-16,-1.2246467991473532E-16,-1.0,14.23606797749979,7.798072709589751)"/></marker><marker id="ProcessOnMarker1053" markerHeight="10.551" markerUnits="userSpaceOnUse" markerWidth="16.236" orient="auto" refX="-1" refY="3.899" viewBox="-1 -1.376 16.236 10.551"><path id="ProcessOnPath1054" fill="#323232" stroke="#323232" stroke-width="2" d="M12.0 3.8990363547948754L0.0 7.798072709589751V0.0Z" transform="matrix(1.0,0.0,0.0,1.0,0.0,0.0)"/></marker><marker id="ProcessOnMarker1063" markerHeight="10.551" markerUnits="userSpaceOnUse" markerWidth="16.236" orient="auto" refX="15.236" refY="3.899" viewBox="-1 -1.376 16.236 10.551"><path id="ProcessOnPath1064" fill="#323232" stroke="#323232" stroke-width="2" d="M12.0 3.8990363547948754L0.0 7.798072709589751V0.0Z" transform="matrix(-1.0,1.2246467991473532E-16,-1.2246467991473532E-16,-1.0,14.23606797749979,7.798072709589751)"/></marker><marker id="ProcessOnMarker1065" markerHeight="10.551" markerUnits="userSpaceOnUse" markerWidth="16.236" orient="auto" refX="-1" refY="3.899" viewBox="-1 -1.376 16.236 10.551"><path id="ProcessOnPath1066" fill="#323232" stroke="#323232" stroke-width="2" d="M12.0 3.8990363547948754L0.0 7.798072709589751V0.0Z" transform="matrix(1.0,0.0,0.0,1.0,0.0,0.0)"/></marker><marker id="ProcessOnMarker1079" markerHeight="10.551" markerUnits="userSpaceOnUse" markerWidth="16.236" orient="auto" refX="15.236" refY="3.899" viewBox="-1 -1.376 16.236 10.551"><path id="ProcessOnPath1080" fill="#323232" stroke="#323232" stroke-width="2" d="M12.0 3.8990363547948754L0.0 7.798072709589751V0.0Z" transform="matrix(-1.0,1.2246467991473532E-16,-1.2246467991473532E-16,-1.0,14.23606797749979,7.798072709589751)"/></marker><marker id="ProcessOnMarker1081" markerHeight="10.551" markerUnits="userSpaceOnUse" markerWidth="16.236" orient="auto" refX="-1" refY="3.899" viewBox="-1 -1.376 16.236 10.551"><path id="ProcessOnPath1082" fill="#323232" stroke="#323232" stroke-width="2" d="M12.0 3.8990363547948754L0.0 7.798072709589751V0.0Z" transform="matrix(1.0,0.0,0.0,1.0,0.0,0.0)"/></marker></defs><g id="ProcessOnG1002"><path id="ProcessOnPath1003" fill="none" d="M422.625 183.8125H1003.375V514.1875H422.625V183.8125Z"/><g id="ProcessOnG1004"><g id="ProcessOnG1005" opacity="1" transform="matrix(1.0,0.0,0.0,1.0,442.625,214.8125)"><path id="ProcessOnPath1006" fill="#fff" stroke="#dadada" stroke-dasharray="none" stroke-width="2" d="M0.0 4.0Q0.0 0.0 4.0 0.0L307.25 0.0Q311.25 0.0 311.25 4.0L311.25 100.0Q311.25 104.0 307.25 104.0L4.0 104.0Q0.0 104.0 0.0 100.0Z" opacity="1"/><path id="ProcessOnPath1007" fill="#dadada" stroke="#dadada" stroke-dasharray="none" stroke-width="2" d="M0.0 30.0L0.0 4.0Q0.0 0.0 4.0 0.0L307.25 0.0Q311.25 0.0 311.25 4.0L311.25 30.0Z" opacity="1"/><path id="ProcessOnPath1008" fill="#fff" stroke="none" stroke-dasharray="none" stroke-width="0" d="M10.0 15.0C10.0 10.0 18.0 10.0 18.0 15.0C18.0 20.0 10.0 20.0 10.0 15.0Z" opacity="1"/><path id="ProcessOnPath1009" fill="#fff" stroke="none" stroke-dasharray="none" stroke-width="0" d="M23.0 15.0C23.0 10.0 31.0 10.0 31.0 15.0C31.0 20.0 23.0 20.0 23.0 15.0Z" opacity="1"/><path id="ProcessOnPath1010" fill="#fff" stroke="none" stroke-dasharray="none" stroke-width="0" d="M36.0 15.0C36.0 10.0 44.0 10.0 44.0 15.0C44.0 20.0 36.0 20.0 36.0 15.0Z" opacity="1"/><path id="ProcessOnPath1011" fill="#fff" stroke="none" stroke-dasharray="none" stroke-width="0" d="M55.0 9.0Q55.0 5.0 59.0 5.0L302.25 5.0Q306.25 5.0 306.25 9.0L306.25 21.0Q306.25 25.0 302.25 25.0L59.0 25.0Q55.0 25.0 55.0 21.0Z" opacity="1"/><path id="ProcessOnPath1012" fill="none" stroke="none" stroke-dasharray="none" stroke-width="0" d="M0.0 0.0L311.25 0.0L311.25 104.0L0.0 104.0Z" opacity="1"/><g id="ProcessOnG1013" transform="matrix(1.0,0.0,0.0,1.0,60.0,6.875)"><text id="ProcessOnText1014" x="0" y="13.325" fill="#000" family="Tahoma" font-family="Tahoma" font-size="13" font-style="normal" font-weight="normal" size="13" text-anchor="start" text-decoration="none">https://my-site</text></g></g><g id="ProcessOnG1015" opacity="1" transform="matrix(1.0,0.0,0.0,1.0,442.625,424.1875)"><path id="ProcessOnPath1016" fill="#fff" stroke="#323232" stroke-dasharray="none" stroke-width="2" d="M10.799999999999999 49.0C-9.0 35.0 3.6 24.5 8.1 21.0C6.300000000000001 3.5 28.8 0.0 37.8 7.0C45.0 -3.5 67.5 0.0 67.5 10.5C85.5 7.0 92.7 21.0 85.5 38.5C91.8 52.5 85.5 70.0 64.8 63.0C60.300000000000004 72.10000000000001 42.3 72.10000000000001 37.8 63.0C28.8 70.0 10.799999999999999 66.5 10.799999999999999 49.0Z" opacity="1"/><g id="ProcessOnG1017" transform="matrix(1.0,0.0,0.0,1.0,10.0,26.875)"><text id="ProcessOnText1018" x="34" y="13.325" fill="#000" family="Tahoma" font-family="Tahoma" font-size="13" font-style="normal" font-weight="normal" size="13" text-anchor="middle" text-decoration="none">free-host-1</text></g></g><g id="ProcessOnG1019" opacity="1" transform="matrix(1.0,0.0,0.0,1.0,442.625,335.8125)"><path id="ProcessOnPath1020" fill="#cfcfcf" stroke="#323232" stroke-dasharray="none" stroke-width="2" d="M0.0 0.0L311.25 0.0L311.25 59.0L0.0 59.0Z" opacity="1"/></g><g id="ProcessOnG1021" opacity="1" transform="matrix(1.0,0.0,0.0,1.0,545.375,424.1875)"><path id="ProcessOnPath1022" fill="#fff" stroke="#323232" stroke-dasharray="none" stroke-width="2" d="M10.799999999999999 49.0C-9.0 35.0 3.6 24.5 8.1 21.0C6.300000000000001 3.5 28.8 0.0 37.8 7.0C45.0 -3.5 67.5 0.0 67.5 10.5C85.5 7.0 92.7 21.0 85.5 38.5C91.8 52.5 85.5 70.0 64.8 63.0C60.300000000000004 72.10000000000001 42.3 72.10000000000001 37.8 63.0C28.8 70.0 10.799999999999999 66.5 10.799999999999999 49.0Z" opacity="1"/><g id="ProcessOnG1023" transform="matrix(1.0,0.0,0.0,1.0,10.0,26.875)"><text id="ProcessOnText1024" x="34" y="13.325" fill="#000" family="Tahoma" font-family="Tahoma" font-size="13" font-style="normal" font-weight="normal" size="13" text-anchor="middle" text-decoration="none">free-host-2</text></g></g><g id="ProcessOnG1025"><path id="ProcessOnPath1026" fill="none" stroke="#323232" stroke-dasharray="none" stroke-width="2" marker-start="url(#ProcessOnMarker1027)" d="M599.375 410.8499999999999L599.375 409.8499999999999L598.25 409.8499999999999L598.25 394.8125"/></g><g id="ProcessOnG1029"><path id="ProcessOnPath1030" fill="none" stroke="#323232" stroke-dasharray="none" stroke-width="2" marker-start="url(#ProcessOnMarker1031)" d="M496.625 410.8499999999999L496.625 409.8499999999999L497.5271883289124 409.8499999999999L497.5271883289124 394.8125"/></g><g id="ProcessOnG1033" opacity="1" transform="matrix(1.0,0.0,0.0,1.0,647.875,424.1875)"><path id="ProcessOnPath1034" fill="#fff" stroke="#323232" stroke-dasharray="none" stroke-width="2" d="M10.799999999999999 49.0C-9.0 35.0 3.6 24.5 8.1 21.0C6.300000000000001 3.5 28.8 0.0 37.8 7.0C45.0 -3.5 67.5 0.0 67.5 10.5C85.5 7.0 92.7 21.0 85.5 38.5C91.8 52.5 85.5 70.0 64.8 63.0C60.300000000000004 72.10000000000001 42.3 72.10000000000001 37.8 63.0C28.8 70.0 10.799999999999999 66.5 10.799999999999999 49.0Z" opacity="1"/><g id="ProcessOnG1035" transform="matrix(1.0,0.0,0.0,1.0,10.0,26.875)"><text id="ProcessOnText1036" x="34" y="13.325" fill="#000" family="Tahoma" font-family="Tahoma" font-size="13" font-style="normal" font-weight="normal" size="13" text-anchor="middle" text-decoration="none">free-host-N</text></g></g><g id="ProcessOnG1037"><path id="ProcessOnPath1038" fill="none" stroke="#323232" stroke-dasharray="none" stroke-width="2" marker-start="url(#ProcessOnMarker1039)" d="M701.875 410.8499999999999L701.875 409.8499999999999L701.8624005305041 409.8499999999999L701.8624005305041 394.8125"/></g><g id="ProcessOnG1041" opacity="1" transform="matrix(1.0,0.0,0.0,1.0,893.375,260.3125)"><path id="ProcessOnPath1042" fill="#cfcfcf" stroke="#323232" stroke-dasharray="none" stroke-width="2" d="M10.799999999999999 49.0C-9.0 35.0 3.6 24.5 8.1 21.0C6.300000000000001 3.5 28.8 0.0 37.8 7.0C45.0 -3.5 67.5 0.0 67.5 10.5C85.5 7.0 92.7 21.0 85.5 38.5C91.8 52.5 85.5 70.0 64.8 63.0C60.300000000000004 72.10000000000001 42.3 72.10000000000001 37.8 63.0C28.8 70.0 10.799999999999999 66.5 10.799999999999999 49.0Z" opacity="1"/><g id="ProcessOnG1043" transform="matrix(1.0,0.0,0.0,1.0,10.0,26.875)"><text id="ProcessOnText1044" x="34" y="13.325" fill="#000" family="Tahoma" font-family="Tahoma" font-size="13" font-style="normal" font-weight="normal" size="13" text-anchor="middle" text-decoration="none">my-site</text></g></g><g id="ProcessOnG1045" opacity="1" transform="matrix(1.0,0.0,0.0,1.0,785.375,266.8125)"><path id="ProcessOnPath1046" fill="none" stroke="none" stroke-dasharray="none" stroke-width="0" d="M0.0 0.0L82.5 0.0L82.5 29.0L0.0 29.0Z" opacity="1"/><g id="ProcessOnG1047" transform="matrix(1.0,0.0,0.0,1.0,0.0,6.375)"><text id="ProcessOnText1048" x="40.25" y="13.325" fill="#000" family="Tahoma" font-family="Tahoma" font-size="13" font-style="normal" font-weight="normal" size="13" text-anchor="middle" text-decoration="none">/any/path</text></g></g><g id="ProcessOnG1049"><path id="ProcessOnPath1050" fill="none" stroke="#323232" stroke-dasharray="none" stroke-width="2" marker-end="url(#ProcessOnMarker1053)" marker-start="url(#ProcessOnMarker1051)" d="M769.1110679774998 295.3125L823.625 295.3125L823.625 295.3125L878.1389320225002 295.3125"/></g><g id="ProcessOnG1055" opacity="1" transform="matrix(1.0,0.0,0.0,1.0,450.75,266.8125)"><path id="ProcessOnPath1056" fill="#ffa" stroke="none" stroke-dasharray="none" stroke-width="0" d="M0.0 0.0L279.0 0.0L295.0 16.0L295.0 37.0L0.0 37.0L0.0 0.0Z" opacity="1"/><path id="ProcessOnPath1057" fill="#cdcd78" stroke="none" stroke-dasharray="none" stroke-width="0" d="M279.0 0.0L279.0 16.0L295.0 16.0Z" opacity="1"/><path id="ProcessOnPath1058" fill="none" stroke="none" stroke-dasharray="none" stroke-width="0" d="M0.0 0.0L279.0 0.0L295.0 16.0L295.0 37.0L0.0 37.0L0.0 0.0Z" opacity="1"/><g id="ProcessOnG1059" transform="matrix(1.0,0.0,0.0,1.0,10.0,10.375)"><text id="ProcessOnText1060" x="136.5" y="13.325" fill="#000" family="Tahoma" font-family="Tahoma" font-size="13" font-style="normal" font-weight="normal" size="13" text-anchor="middle" text-decoration="none">&lt;script src=//free-host-*/boot.js&gt;&lt;/script&gt;</text></g></g><g id="ProcessOnG1061"><path id="ProcessOnPath1062" fill="none" stroke="#323232" stroke-dasharray="none" stroke-width="2" marker-end="url(#ProcessOnMarker1065)" marker-start="url(#ProcessOnMarker1063)" d="M910.4749999999999 338.5485679774998L910.4749999999999 365.3125L769.1110679774998 365.3125"/></g><g id="ProcessOnG1067" opacity="1" transform="matrix(1.0,0.0,0.0,1.0,785.375,335.8125)"><path id="ProcessOnPath1068" fill="none" stroke="none" stroke-dasharray="none" stroke-width="0" d="M0.0 0.0L82.5 0.0L82.5 29.0L0.0 29.0Z" opacity="1"/><g id="ProcessOnG1069" transform="matrix(1.0,0.0,0.0,1.0,0.0,6.375)"><text id="ProcessOnText1070" x="40.25" y="13.325" fill="#000" family="Tahoma" font-family="Tahoma" font-size="13" font-style="normal" font-weight="normal" size="13" text-anchor="middle" text-decoration="none">sw.js</text></g></g><g id="ProcessOnG1071" opacity="1" transform="matrix(1.0,0.0,0.0,1.0,450.75,346.8125)"><path id="ProcessOnPath1072" fill="#ffa" stroke="none" stroke-dasharray="none" stroke-width="0" d="M0.0 0.0L279.0 0.0L295.0 16.0L295.0 37.0L0.0 37.0L0.0 0.0Z" opacity="1"/><path id="ProcessOnPath1073" fill="#cdcd78" stroke="none" stroke-dasharray="none" stroke-width="0" d="M279.0 0.0L279.0 16.0L295.0 16.0Z" opacity="1"/><path id="ProcessOnPath1074" fill="none" stroke="none" stroke-dasharray="none" stroke-width="0" d="M0.0 0.0L279.0 0.0L295.0 16.0L295.0 37.0L0.0 37.0L0.0 0.0Z" opacity="1"/><g id="ProcessOnG1075" transform="matrix(1.0,0.0,0.0,1.0,10.0,10.375)"><text id="ProcessOnText1076" x="136.5" y="13.325" fill="#000" family="Tahoma" font-family="Tahoma" font-size="13" font-style="normal" font-weight="normal" size="13" text-anchor="middle" text-decoration="none">importScripts(&apos;//free-host-*.net/sw.js&apos;)</text></g></g><g id="ProcessOnG1077"><path id="ProcessOnPath1078" fill="none" stroke="#323232" stroke-dasharray="2 3" stroke-width="2" marker-end="url(#ProcessOnMarker1081)" marker-start="url(#ProcessOnMarker1079)" d="M769.1110679774998 232.8125L908.6750000000002 232.8125L908.6750000000002 251.37643202250015"/></g><g id="ProcessOnG1083" opacity="1" transform="matrix(1.0,0.0,0.0,1.0,785.375,203.8125)"><path id="ProcessOnPath1084" fill="none" stroke="none" stroke-dasharray="none" stroke-width="0" d="M0.0 0.0L82.5 0.0L82.5 29.0L0.0 29.0Z" opacity="1"/><g id="ProcessOnG1085" transform="matrix(1.0,0.0,0.0,1.0,0.0,6.375)"><text id="ProcessOnText1086" x="40.25" y="13.325" fill="#000" family="Tahoma" font-family="Tahoma" font-size="13" font-style="normal" font-weight="normal" size="13" text-anchor="middle" text-decoration="none">TCP, HTTPS</text></g></g><g id="ProcessOnG1087" opacity="1" transform="matrix(1.0,0.0,0.0,1.0,794.625,295.8125)"><path id="ProcessOnPath1088" fill="none" stroke="none" stroke-dasharray="none" stroke-width="0" d="M0.0 0.0L64.0 0.0L64.0 28.0L0.0 28.0Z" opacity="1"/><g id="ProcessOnG1089" transform="matrix(1.0,0.0,0.0,1.0,0.0,5.875)"><text id="ProcessOnText1090" x="31" y="13.325" fill="#0c0" family="Tahoma" font-family="Tahoma" font-size="13" font-style="normal" font-weight="normal" size="13" text-anchor="middle" text-decoration="none">~50 bytes</text></g></g><g id="ProcessOnG1091" opacity="1" transform="matrix(1.0,0.0,0.0,1.0,797.125,368.1875)"><path id="ProcessOnPath1092" fill="none" stroke="none" stroke-dasharray="none" stroke-width="0" d="M0.0 0.0L64.0 0.0L64.0 28.0L0.0 28.0Z" opacity="1"/><g id="ProcessOnG1093" transform="matrix(1.0,0.0,0.0,1.0,0.0,5.875)"><text id="ProcessOnText1094" x="31" y="13.325" fill="#0c0" family="Tahoma" font-family="Tahoma" font-size="13" font-style="normal" font-weight="normal" size="13" text-anchor="middle" text-decoration="none">~40 bytes</text></g></g></g></g></svg>