<svg xmlns="http://www.w3.org/2000/svg" xmlns:xlink="http://www.w3.org/1999/xlink" id="processonSvg1000" width="417" height="301" viewBox="337.5 95.5 417 301"><g id="ProcessOnG1002"><path id="ProcessOnPath1003" fill="none" d="M337.5 95.5H754.5V396.5H337.5V95.5Z"/><g id="ProcessOnG1004"><g id="ProcessOnG1005" opacity="1" transform="matrix(1.0,0.0,0.0,1.0,357.5,115.5)"><path id="ProcessOnPath1006" fill="#fff" stroke="#dadada" stroke-dasharray="none" stroke-width="2" d="M0.0 4.0Q0.0 0.0 4.0 0.0L373.0 0.0Q377.0 0.0 377.0 4.0L377.0 147.0Q377.0 151.0 373.0 151.0L4.0 151.0Q0.0 151.0 0.0 147.0Z" opacity="1"/><path id="ProcessOnPath1007" fill="#dadada" stroke="#dadada" stroke-dasharray="none" stroke-width="2" d="M0.0 30.0L0.0 4.0Q0.0 0.0 4.0 0.0L373.0 0.0Q377.0 0.0 377.0 4.0L377.0 30.0Z" opacity="1"/><path id="ProcessOnPath1008" fill="#fff" stroke="none" stroke-dasharray="none" stroke-width="0" d="M10.0 15.0C10.0 10.0 18.0 10.0 18.0 15.0C18.0 20.0 10.0 20.0 10.0 15.0Z" opacity="1"/><path id="ProcessOnPath1009" fill="#fff" stroke="none" stroke-dasharray="none" stroke-width="0" d="M23.0 15.0C23.0 10.0 31.0 10.0 31.0 15.0C31.0 20.0 23.0 20.0 23.0 15.0Z" opacity="1"/><path id="ProcessOnPath1010" fill="#fff" stroke="none" stroke-dasharray="none" stroke-width="0" d="M36.0 15.0C36.0 10.0 44.0 10.0 44.0 15.0C44.0 20.0 36.0 20.0 36.0 15.0Z" opacity="1"/><path id="ProcessOnPath1011" fill="#fff" stroke="none" stroke-dasharray="none" stroke-width="0" d="M55.0 9.0Q55.0 5.0 59.0 5.0L368.0 5.0Q372.0 5.0 372.0 9.0L372.0 21.0Q372.0 25.0 368.0 25.0L59.0 25.0Q55.0 25.0 55.0 21.0Z" opacity="1"/><path id="ProcessOnPath1012" fill="none" stroke="none" stroke-dasharray="none" stroke-width="0" d="M0.0 0.0L377.0 0.0L377.0 151.0L0.0 151.0Z" opacity="1"/><g id="ProcessOnG1013" transform="matrix(1.0,0.0,0.0,1.0,60.0,6.875)"><text id="ProcessOnText1014" x="152.5" y="13.325" fill="#000" family="Tahoma" font-family="Tahoma" font-size="13" font-style="normal" font-weight="normal" size="13" text-anchor="middle" text-decoration="none">http://my-host.net</text></g></g><g id="ProcessOnG1015" opacity="1" transform="matrix(1.0,0.0,0.0,1.0,386.5,160.0)"><path id="ProcessOnPath1016" fill="#fff" stroke="#8a8a8a" stroke-dasharray="none" stroke-width="2" d="M0.0 0.0L93.0 0.0L93.0 90.5L0.0 90.5Z" opacity="1"/><path id="ProcessOnPath1017" fill="#505050" stroke="#505050" stroke-dasharray="none" stroke-width="1" d="M61.53846153846153 21.3125C76.53846153846153 21.3125 76.53846153846153 43.3125 61.53846153846153 43.3125C46.53846153846153 43.3125 46.53846153846153 21.3125 61.53846153846153 21.3125Z" opacity="1"/><path id="ProcessOnPath1018" fill="#505050" stroke="none" stroke-dasharray="none" stroke-width="0" d="M30.0 60.5L31.0 40.0L46.5 45.25L58.125 36.2L63.0 60.5Z" opacity="1"/><path id="ProcessOnPath1019" fill="none" stroke="none" stroke-dasharray="none" stroke-width="0" d="M0.0 0.0L93.0 0.0L93.0 90.5L0.0 90.5Z" opacity="1"/></g><g id="ProcessOnG1020" opacity="1" transform="matrix(1.0,0.0,0.0,1.0,499.5,160.0)"><path id="ProcessOnPath1021" fill="#fff" stroke="#8a8a8a" stroke-dasharray="none" stroke-width="2" d="M0.0 0.0L93.0 0.0L93.0 90.5L0.0 90.5Z" opacity="1"/><path id="ProcessOnPath1022" fill="#505050" stroke="#505050" stroke-dasharray="none" stroke-width="1" d="M61.53846153846153 21.3125C76.53846153846153 21.3125 76.53846153846153 43.3125 61.53846153846153 43.3125C46.53846153846153 43.3125 46.53846153846153 21.3125 61.53846153846153 21.3125Z" opacity="1"/><path id="ProcessOnPath1023" fill="#505050" stroke="none" stroke-dasharray="none" stroke-width="0" d="M30.0 60.5L31.0 40.0L46.5 45.25L58.125 36.2L63.0 60.5Z" opacity="1"/><path id="ProcessOnPath1024" fill="none" stroke="none" stroke-dasharray="none" stroke-width="0" d="M0.0 0.0L93.0 0.0L93.0 90.5L0.0 90.5Z" opacity="1"/></g><g id="ProcessOnG1025" opacity="1" transform="matrix(1.0,0.0,0.0,1.0,612.5,160.0)"><path id="ProcessOnPath1026" fill="#fff" stroke="#8a8a8a" stroke-dasharray="none" stroke-width="2" d="M0.0 0.0L93.0 0.0L93.0 90.5L0.0 90.5Z" opacity="1"/><path id="ProcessOnPath1027" fill="#505050" stroke="#505050" stroke-dasharray="none" stroke-width="1" d="M61.53846153846153 21.3125C76.53846153846153 21.3125 76.53846153846153 43.3125 61.53846153846153 43.3125C46.53846153846153 43.3125 46.53846153846153 21.3125 61.53846153846153 21.3125Z" opacity="1"/><path id="ProcessOnPath1028" fill="#505050" stroke="none" stroke-dasharray="none" stroke-width="0" d="M30.0 60.5L31.0 40.0L46.5 45.25L58.125 36.2L63.0 60.5Z" opacity="1"/><path id="ProcessOnPath1029" fill="none" stroke="none" stroke-dasharray="none" stroke-width="0" d="M0.0 0.0L93.0 0.0L93.0 90.5L0.0 90.5Z" opacity="1"/></g><g id="ProcessOnG1030" opacity="1" transform="matrix(1.0,0.0,0.0,1.0,357.5,277.5)"><path id="ProcessOnPath1031" fill="#ffa" stroke="none" stroke-dasharray="none" stroke-width="0" d="M0.0 0.0L361.0 0.0L377.0 16.0L377.0 99.0L0.0 99.0L0.0 0.0Z" opacity="1"/><path id="ProcessOnPath1032" fill="#cdcd78" stroke="none" stroke-dasharray="none" stroke-width="0" d="M361.0 0.0L361.0 16.0L377.0 16.0Z" opacity="1"/><path id="ProcessOnPath1033" fill="none" stroke="none" stroke-dasharray="none" stroke-width="0" d="M0.0 0.0L361.0 0.0L377.0 16.0L377.0 99.0L0.0 99.0L0.0 0.0Z" opacity="1"/><g id="ProcessOnG1034" transform="matrix(1.0,0.0,0.0,1.0,10.0,10.0)"><text id="ProcessOnText1035" x="0" y="13.325" fill="#000" family="Tahoma" font-family="Tahoma" font-size="13" font-style="normal" font-weight="normal" size="13" text-anchor="start" text-decoration="none">&lt;img src=&quot;http://xx.free-host-1.com/xxx.jpg&quot; &gt;</text><text id="ProcessOnText1037" x="0" y="45.825" fill="#000" family="Tahoma" font-family="Tahoma" font-size="13" font-style="normal" font-weight="normal" size="13" text-anchor="start" text-decoration="none">&lt;img src=&quot;http://xx.free-host-2.com/xxx.jpg&quot; &gt;</text><text id="ProcessOnText1039" x="0" y="78.325" fill="#000" family="Tahoma" font-family="Tahoma" font-size="13" font-style="normal" font-weight="normal" size="13" text-anchor="start" text-decoration="none">&lt;img src=&quot;http://xx.free-host-3.com/xxx.jpg&quot; &gt;</text></g></g></g></g></svg>