<svg xmlns="http://www.w3.org/2000/svg" xmlns:xlink="http://www.w3.org/1999/xlink" id="processonSvg1000" width="548.5" height="345.5" viewBox="330.75 125.25 548.5 345.5"><defs id="ProcessOnDefs1001"><marker id="ProcessOnMarker1029" markerHeight="10.551" markerUnits="userSpaceOnUse" markerWidth="16.236" orient="auto" refX="15.236" refY="3.899" viewBox="-1 -1.376 16.236 10.551"><path id="ProcessOnPath1030" fill="#323232" stroke="#323232" stroke-width="2" d="M12.0 3.8990363547948754L0.0 7.798072709589751V0.0Z" transform="matrix(-1.0,1.2246467991473532E-16,-1.2246467991473532E-16,-1.0,14.23606797749979,7.798072709589751)"/></marker><marker id="ProcessOnMarker1033" markerHeight="10.551" markerUnits="userSpaceOnUse" markerWidth="16.236" orient="auto" refX="15.236" refY="3.899" viewBox="-1 -1.376 16.236 10.551"><path id="ProcessOnPath1034" fill="#323232" stroke="#323232" stroke-width="2" d="M12.0 3.8990363547948754L0.0 7.798072709589751V0.0Z" transform="matrix(-1.0,1.2246467991473532E-16,-1.2246467991473532E-16,-1.0,14.23606797749979,7.798072709589751)"/></marker><marker id="ProcessOnMarker1045" markerHeight="10.551" markerUnits="userSpaceOnUse" markerWidth="16.236" orient="auto" refX="15.236" refY="3.899" viewBox="-1 -1.376 16.236 10.551"><path id="ProcessOnPath1046" fill="#323232" stroke="#323232" stroke-width="2" d="M12.0 3.8990363547948754L0.0 7.798072709589751V0.0Z" transform="matrix(-1.0,1.2246467991473532E-16,-1.2246467991473532E-16,-1.0,14.23606797749979,7.798072709589751)"/></marker><marker id="ProcessOnMarker1070" markerHeight="10.551" markerUnits="userSpaceOnUse" markerWidth="16.236" orient="auto" refX="-1" refY="3.899" viewBox="-1 -1.376 16.236 10.551"><path id="ProcessOnPath1071" fill="#323232" stroke="#323232" stroke-width="2" d="M12.0 3.8990363547948754L0.0 7.798072709589751V0.0Z" transform="matrix(1.0,0.0,0.0,1.0,0.0,0.0)"/></marker><marker id="ProcessOnMarker1078" markerHeight="10.551" markerUnits="userSpaceOnUse" markerWidth="16.236" orient="auto" refX="-1" refY="3.899" viewBox="-1 -1.376 16.236 10.551"><path id="ProcessOnPath1079" fill="#323232" stroke="#323232" stroke-width="2" d="M12.0 3.8990363547948754L0.0 7.798072709589751V0.0Z" transform="matrix(1.0,0.0,0.0,1.0,0.0,0.0)"/></marker></defs><g id="ProcessOnG1002"><path id="ProcessOnPath1003" fill="none" d="M330.75 125.25H879.25V470.75H330.75V125.25Z"/><g id="ProcessOnG1004"><g id="ProcessOnG1005" opacity="1" transform="matrix(1.0,0.0,0.0,1.0,350.75,145.25)"><path id="ProcessOnPath1006" fill="#fff" stroke="#dadada" stroke-dasharray="none" stroke-width="2" d="M0.0 4.0Q0.0 0.0 4.0 0.0L373.0 0.0Q377.0 0.0 377.0 4.0L377.0 147.0Q377.0 151.0 373.0 151.0L4.0 151.0Q0.0 151.0 0.0 147.0Z" opacity="1"/><path id="ProcessOnPath1007" fill="#dadada" stroke="#dadada" stroke-dasharray="none" stroke-width="2" d="M0.0 30.0L0.0 4.0Q0.0 0.0 4.0 0.0L373.0 0.0Q377.0 0.0 377.0 4.0L377.0 30.0Z" opacity="1"/><path id="ProcessOnPath1008" fill="#fff" stroke="none" stroke-dasharray="none" stroke-width="0" d="M10.0 15.0C10.0 10.0 18.0 10.0 18.0 15.0C18.0 20.0 10.0 20.0 10.0 15.0Z" opacity="1"/><path id="ProcessOnPath1009" fill="#fff" stroke="none" stroke-dasharray="none" stroke-width="0" d="M23.0 15.0C23.0 10.0 31.0 10.0 31.0 15.0C31.0 20.0 23.0 20.0 23.0 15.0Z" opacity="1"/><path id="ProcessOnPath1010" fill="#fff" stroke="none" stroke-dasharray="none" stroke-width="0" d="M36.0 15.0C36.0 10.0 44.0 10.0 44.0 15.0C44.0 20.0 36.0 20.0 36.0 15.0Z" opacity="1"/><path id="ProcessOnPath1011" fill="#fff" stroke="none" stroke-dasharray="none" stroke-width="0" d="M55.0 9.0Q55.0 5.0 59.0 5.0L368.0 5.0Q372.0 5.0 372.0 9.0L372.0 21.0Q372.0 25.0 368.0 25.0L59.0 25.0Q55.0 25.0 55.0 21.0Z" opacity="1"/><path id="ProcessOnPath1012" fill="none" stroke="none" stroke-dasharray="none" stroke-width="0" d="M0.0 0.0L377.0 0.0L377.0 151.0L0.0 151.0Z" opacity="1"/><g id="ProcessOnG1013" transform="matrix(1.0,0.0,0.0,1.0,60.0,6.875)"><text id="ProcessOnText1014" x="0" y="13.325" fill="#000" family="Tahoma" font-family="Tahoma" font-size="13" font-style="normal" font-weight="normal" size="13" text-anchor="start" text-decoration="none">http://my-site</text></g></g><g id="ProcessOnG1015" opacity="1" transform="matrix(1.0,0.0,0.0,1.0,363.125,380.625)"><path id="ProcessOnPath1016" fill="#fff" stroke="#323232" stroke-dasharray="none" stroke-width="2" d="M10.799999999999999 49.0C-9.0 35.0 3.6 24.5 8.1 21.0C6.300000000000001 3.5 28.8 0.0 37.8 7.0C45.0 -3.5 67.5 0.0 67.5 10.5C85.5 7.0 92.7 21.0 85.5 38.5C91.8 52.5 85.5 70.0 64.8 63.0C60.300000000000004 72.10000000000001 42.3 72.10000000000001 37.8 63.0C28.8 70.0 10.799999999999999 66.5 10.799999999999999 49.0Z" opacity="1"/><g id="ProcessOnG1017" transform="matrix(1.0,0.0,0.0,1.0,10.0,26.875)"><text id="ProcessOnText1018" x="34" y="13.325" fill="#000" family="Tahoma" font-family="Tahoma" font-size="13" font-style="normal" font-weight="normal" size="13" text-anchor="middle" text-decoration="none">free-host-1</text></g></g><g id="ProcessOnG1019" opacity="1" transform="matrix(1.0,0.0,0.0,1.0,350.75,312.25)"><path id="ProcessOnPath1020" fill="#cfcfcf" stroke="#323232" stroke-dasharray="none" stroke-width="2" d="M0.0 0.0L377.0 0.0L377.0 27.0L0.0 27.0Z" opacity="1"/><g id="ProcessOnG1021" transform="matrix(1.0,0.0,0.0,1.0,10.0,5.375)"><text id="ProcessOnText1022" x="177.5" y="13.325" fill="#000" family="Tahoma" font-family="Tahoma" font-size="13" font-style="normal" font-weight="normal" size="13" text-anchor="middle" text-decoration="none">AJAX</text></g></g><g id="ProcessOnG1023" opacity="1" transform="matrix(1.0,0.0,0.0,1.0,485.25,380.75)"><path id="ProcessOnPath1024" fill="#fff" stroke="#323232" stroke-dasharray="none" stroke-width="2" d="M10.799999999999999 49.0C-9.0 35.0 3.6 24.5 8.1 21.0C6.300000000000001 3.5 28.8 0.0 37.8 7.0C45.0 -3.5 67.5 0.0 67.5 10.5C85.5 7.0 92.7 21.0 85.5 38.5C91.8 52.5 85.5 70.0 64.8 63.0C60.300000000000004 72.10000000000001 42.3 72.10000000000001 37.8 63.0C28.8 70.0 10.799999999999999 66.5 10.799999999999999 49.0Z" opacity="1"/><g id="ProcessOnG1025" transform="matrix(1.0,0.0,0.0,1.0,10.0,26.875)"><text id="ProcessOnText1026" x="34" y="13.325" fill="#000" family="Tahoma" font-family="Tahoma" font-size="13" font-style="normal" font-weight="normal" size="13" text-anchor="middle" text-decoration="none">free-host-2</text></g></g><g id="ProcessOnG1027"><path id="ProcessOnPath1028" fill="none" stroke="#323232" stroke-dasharray="none" stroke-width="2" marker-start="url(#ProcessOnMarker1029)" d="M539.25 366.2139320225003L539.25 360.35L539.25 360.35L539.25 339.25"/></g><g id="ProcessOnG1031"><path id="ProcessOnPath1032" fill="none" stroke="#323232" stroke-dasharray="none" stroke-width="2" marker-start="url(#ProcessOnMarker1033)" d="M417.125 366.0889320225003L417.125 360.2875L417.25 360.2875L417.25 339.25"/></g><g id="ProcessOnG1035" opacity="1" transform="matrix(1.0,0.0,0.0,1.0,600.25,347.25)"><path id="ProcessOnPath1036" fill="none" stroke="none" stroke-dasharray="none" stroke-width="0" d="M0.0 0.0L64.0 0.0L64.0 28.0L0.0 28.0Z" opacity="1"/><g id="ProcessOnG1037" transform="matrix(1.0,0.0,0.0,1.0,0.0,5.875)"><text id="ProcessOnText1038" x="31" y="13.325" fill="#990" family="Tahoma" font-family="Tahoma" font-size="13" font-style="normal" font-weight="normal" size="13" text-anchor="middle" text-decoration="none">500ms</text></g></g><g id="ProcessOnG1039" opacity="1" transform="matrix(1.0,0.0,0.0,1.0,610.75,379.0)"><path id="ProcessOnPath1040" fill="#fff" stroke="#323232" stroke-dasharray="none" stroke-width="2" d="M10.799999999999999 49.0C-9.0 35.0 3.6 24.5 8.1 21.0C6.300000000000001 3.5 28.8 0.0 37.8 7.0C45.0 -3.5 67.5 0.0 67.5 10.5C85.5 7.0 92.7 21.0 85.5 38.5C91.8 52.5 85.5 70.0 64.8 63.0C60.300000000000004 72.10000000000001 42.3 72.10000000000001 37.8 63.0C28.8 70.0 10.799999999999999 66.5 10.799999999999999 49.0Z" opacity="1"/><g id="ProcessOnG1041" transform="matrix(1.0,0.0,0.0,1.0,10.0,26.875)"><text id="ProcessOnText1042" x="34" y="13.325" fill="#000" family="Tahoma" font-family="Tahoma" font-size="13" font-style="normal" font-weight="normal" size="13" text-anchor="middle" text-decoration="none">free-host-N</text></g></g><g id="ProcessOnG1043"><path id="ProcessOnPath1044" fill="none" stroke="#323232" stroke-dasharray="none" stroke-width="2" marker-start="url(#ProcessOnMarker1045)" d="M664.75 364.4639320225003L664.75 359.475L664.75 359.475L664.75 339.25"/></g><g id="ProcessOnG1047" opacity="1" transform="matrix(1.0,0.0,0.0,1.0,485.25,347.25)"><path id="ProcessOnPath1048" fill="none" stroke="none" stroke-dasharray="none" stroke-width="0" d="M0.0 0.0L53.0 0.0L53.0 28.0L0.0 28.0Z" opacity="1"/><g id="ProcessOnG1049" transform="matrix(1.0,0.0,0.0,1.0,0.0,5.875)"><text id="ProcessOnText1050" x="25.5" y="13.325" fill="#f33" family="Tahoma" font-family="Tahoma" font-size="13" font-style="normal" font-weight="normal" size="13" text-anchor="middle" text-decoration="none">502</text></g></g><g id="ProcessOnG1051" opacity="1" transform="matrix(1.0,0.0,0.0,1.0,780.75,155.25)"><path id="ProcessOnPath1052" fill="#cfcfcf" stroke="#323232" stroke-dasharray="none" stroke-width="2" d="M0.0 9.100000000000001C0.0 -2.6 67.0 -2.6 67.0 9.100000000000001L67.0 55.9C67.0 67.60000000000001 0.0 67.60000000000001 0.0 55.9L0.0 9.100000000000001Z" opacity="1"/><path id="ProcessOnPath1053" fill="#cfcfcf" stroke="#323232" stroke-dasharray="none" stroke-width="2" d="M67.0 9.100000000000001C67.0 19.5 0.0 19.5 0.0 9.100000000000001L0.0 13.0C0.0 23.4 67.0 23.4 67.0 13.0L67.0 16.900000000000002C67.0 27.3 0.0 27.3 0.0 16.900000000000002C0.0 27.3 67.0 27.3 67.0 16.900000000000002Z" opacity="1"/><path id="ProcessOnPath1054" fill="none" stroke="none" stroke-dasharray="none" stroke-width="0" d="M0.0 6.5Q33.5 -6.5 67.0 6.5L67.0 58.5Q33.5 71.5 0.0 58.5L0.0 6.5Z" opacity="1"/><g id="ProcessOnG1055" transform="matrix(1.0,0.0,0.0,1.0,0.0,35.208333333333336)"><text id="ProcessOnText1056" x="32.5" y="13.325" fill="#000" family="Tahoma" font-family="Tahoma" font-size="13" font-style="normal" font-weight="normal" size="13" text-anchor="middle" text-decoration="none">Cache</text></g></g><g id="ProcessOnG1057" opacity="1" transform="matrix(1.0,0.0,0.0,1.0,359.75,180.75)"><path id="ProcessOnPath1058" fill="#cfcfcf" stroke="#323232" stroke-dasharray="none" stroke-width="1" d="M0.0 0.0L361.5 0.0L361.5 105.5L0.0 105.5Z" opacity="1"/><g id="ProcessOnG1059" transform="matrix(1.0,0.0,0.0,1.0,10.0,20.25)"><text id="ProcessOnText1060" x="169.75" y="13.325" fill="#000" family="Tahoma" font-family="Tahoma" font-size="13" font-style="normal" font-weight="bold" size="13" text-anchor="middle" text-decoration="none">static data (HTML, CSS, JS, ...)</text></g></g><g id="ProcessOnG1064" opacity="1" transform="matrix(1.0,0.0,0.0,1.0,440.75,234.25)"><path id="ProcessOnPath1065" fill="#fff" stroke="#323232" stroke-dasharray="none" stroke-width="1" d="M0.0 0.0L197.0 0.0L197.0 31.75L0.0 31.75Z" opacity="1"/><g id="ProcessOnG1066" transform="matrix(1.0,0.0,0.0,1.0,10.0,7.75)"><text id="ProcessOnText1067" x="87.5" y="13.325" fill="#000" family="Tahoma" font-family="Tahoma" font-size="13" font-style="normal" font-weight="normal" size="13" text-anchor="middle" text-decoration="none">dynamic data (Information)</text></g></g><g id="ProcessOnG1068"><path id="ProcessOnPath1069" fill="none" stroke="#323232" stroke-dasharray="none" stroke-width="2" marker-end="url(#ProcessOnMarker1070)" d="M539.25 312.25L539.25 289.125L539.25 289.125L539.25 281.2360679774998"/></g><g id="ProcessOnG1072" opacity="1" transform="matrix(1.0,0.0,0.0,1.0,364.25,347.25)"><path id="ProcessOnPath1073" fill="none" stroke="none" stroke-dasharray="none" stroke-width="0" d="M0.0 0.0L53.0 0.0L53.0 28.0L0.0 28.0Z" opacity="1"/><g id="ProcessOnG1074" transform="matrix(1.0,0.0,0.0,1.0,0.0,5.875)"><text id="ProcessOnText1075" x="25.5" y="13.325" fill="#f33" family="Tahoma" font-family="Tahoma" font-size="13" font-style="normal" font-weight="normal" size="13" text-anchor="middle" text-decoration="none">404</text></g></g><g id="ProcessOnG1076"><path id="ProcessOnPath1077" fill="none" stroke="#323232" stroke-dasharray="none" stroke-width="2" marker-end="url(#ProcessOnMarker1078)" d="M780.75 187.75L754.25 187.75L754.25 187.75L742.9860679774998 187.75"/></g><g id="ProcessOnG1080" opacity="1" transform="matrix(1.0,0.0,0.0,1.0,721.25,157.75)"><path id="ProcessOnPath1081" fill="none" stroke="none" stroke-dasharray="none" stroke-width="0" d="M0.0 0.0L64.0 0.0L64.0 28.0L0.0 28.0Z" opacity="1"/><g id="ProcessOnG1082" transform="matrix(1.0,0.0,0.0,1.0,0.0,5.875)"><text id="ProcessOnText1083" x="31" y="13.325" fill="#6c0" family="Tahoma" font-family="Tahoma" font-size="13" font-style="normal" font-weight="normal" size="13" text-anchor="middle" text-decoration="none">10ms</text></g></g><g id="ProcessOnG1084" opacity="1" transform="matrix(1.0,0.0,0.0,1.0,769.25,234.25)"><path id="ProcessOnPath1085" fill="#cfcfcf" stroke="#323232" stroke-dasharray="none" stroke-width="2" d="M10.799999999999999 49.0C-9.0 35.0 3.6 24.5 8.1 21.0C6.300000000000001 3.5 28.8 0.0 37.8 7.0C45.0 -3.5 67.5 0.0 67.5 10.5C85.5 7.0 92.7 21.0 85.5 38.5C91.8 52.5 85.5 70.0 64.8 63.0C60.300000000000004 72.10000000000001 42.3 72.10000000000001 37.8 63.0C28.8 70.0 10.799999999999999 66.5 10.799999999999999 49.0Z" opacity="1"/><g id="ProcessOnG1086" transform="matrix(1.0,0.0,0.0,1.0,10.0,26.875)"><text id="ProcessOnText1087" x="34" y="13.325" fill="#000" family="Tahoma" font-family="Tahoma" font-size="13" font-style="normal" font-weight="normal" size="13" text-anchor="middle" text-decoration="none">my-site</text></g></g><g id="ProcessOnG1088" opacity="1" transform="matrix(1.0,0.0,0.0,1.0,803.75,284.25)"><path id="ProcessOnPath1089" fill="#fff" stroke="#323232" stroke-dasharray="none" stroke-width="2" d="M0.0 13.5C0.0 -4.5 27.0 -4.5 27.0 13.5C27.0 31.5 0.0 31.5 0.0 13.5Z" opacity="1"/><path id="ProcessOnPath1090" fill="#fff" stroke="#323232" stroke-dasharray="none" stroke-width="2" d="M4.5 4.5L22.5 22.5M22.5 4.5L4.5 22.5" opacity="1"/><path id="ProcessOnPath1091" fill="none" stroke="none" stroke-dasharray="none" stroke-width="0" d="M0.0 13.5C0.0 -4.5 27.0 -4.5 27.0 13.5C27.0 31.5 0.0 31.5 0.0 13.5Z" opacity="1"/></g></g></g></svg>