<svg xmlns="http://www.w3.org/2000/svg" xmlns:xlink="http://www.w3.org/1999/xlink" id="processonSvg1000" width="573.375" height="293.375" viewBox="281.313 151.313 573.375 293.375"><defs id="ProcessOnDefs1001"><marker id="ProcessOnMarker1041" markerHeight="10.551" markerUnits="userSpaceOnUse" markerWidth="16.236" orient="auto" refX="-1" refY="3.899" viewBox="-1 -1.376 16.236 10.551"><path id="ProcessOnPath1042" fill="#323232" stroke="#323232" stroke-width="2" d="M12.0 3.8990363547948754L0.0 7.798072709589751V0.0Z" transform="matrix(1.0,0.0,0.0,1.0,0.0,0.0)"/></marker><marker id="ProcessOnMarker1051" markerHeight="10.551" markerUnits="userSpaceOnUse" markerWidth="16.236" orient="auto" refX="15.236" refY="3.899" viewBox="-1 -1.376 16.236 10.551"><path id="ProcessOnPath1052" fill="#323232" stroke="#323232" stroke-width="2" d="M12.0 3.8990363547948754L0.0 7.798072709589751V0.0Z" transform="matrix(-1.0,1.2246467991473532E-16,-1.2246467991473532E-16,-1.0,14.23606797749979,7.798072709589751)"/></marker><marker id="ProcessOnMarker1055" markerHeight="10.551" markerUnits="userSpaceOnUse" markerWidth="16.236" orient="auto" refX="15.236" refY="3.899" viewBox="-1 -1.376 16.236 10.551"><path id="ProcessOnPath1056" fill="#323232" stroke="#323232" stroke-width="2" d="M12.0 3.8990363547948754L0.0 7.798072709589751V0.0Z" transform="matrix(-1.0,1.2246467991473532E-16,-1.2246467991473532E-16,-1.0,14.23606797749979,7.798072709589751)"/></marker><marker id="ProcessOnMarker1059" markerHeight="10.551" markerUnits="userSpaceOnUse" markerWidth="16.236" orient="auto" refX="15.236" refY="3.899" viewBox="-1 -1.376 16.236 10.551"><path id="ProcessOnPath1060" fill="#323232" stroke="#323232" stroke-width="2" d="M12.0 3.8990363547948754L0.0 7.798072709589751V0.0Z" transform="matrix(-1.0,1.2246467991473532E-16,-1.2246467991473532E-16,-1.0,14.23606797749979,7.798072709589751)"/></marker></defs><g id="ProcessOnG1002"><path id="ProcessOnPath1003" fill="none" d="M281.3125 151.3125H854.6875V444.6875H281.3125V151.3125Z"/><g id="ProcessOnG1004"><g id="ProcessOnG1005" opacity="1" transform="matrix(1.0,0.0,0.0,1.0,301.3125,171.3125)"><path id="ProcessOnPath1006" fill="#fff" stroke="#dadada" stroke-dasharray="none" stroke-width="2" d="M0.0 4.0Q0.0 0.0 4.0 0.0L373.0 0.0Q377.0 0.0 377.0 4.0L377.0 147.0Q377.0 151.0 373.0 151.0L4.0 151.0Q0.0 151.0 0.0 147.0Z" opacity="1"/><path id="ProcessOnPath1007" fill="#dadada" stroke="#dadada" stroke-dasharray="none" stroke-width="2" d="M0.0 30.0L0.0 4.0Q0.0 0.0 4.0 0.0L373.0 0.0Q377.0 0.0 377.0 4.0L377.0 30.0Z" opacity="1"/><path id="ProcessOnPath1008" fill="#fff" stroke="none" stroke-dasharray="none" stroke-width="0" d="M10.0 15.0C10.0 10.0 18.0 10.0 18.0 15.0C18.0 20.0 10.0 20.0 10.0 15.0Z" opacity="1"/><path id="ProcessOnPath1009" fill="#fff" stroke="none" stroke-dasharray="none" stroke-width="0" d="M23.0 15.0C23.0 10.0 31.0 10.0 31.0 15.0C31.0 20.0 23.0 20.0 23.0 15.0Z" opacity="1"/><path id="ProcessOnPath1010" fill="#fff" stroke="none" stroke-dasharray="none" stroke-width="0" d="M36.0 15.0C36.0 10.0 44.0 10.0 44.0 15.0C44.0 20.0 36.0 20.0 36.0 15.0Z" opacity="1"/><path id="ProcessOnPath1011" fill="#fff" stroke="none" stroke-dasharray="none" stroke-width="0" d="M55.0 9.0Q55.0 5.0 59.0 5.0L368.0 5.0Q372.0 5.0 372.0 9.0L372.0 21.0Q372.0 25.0 368.0 25.0L59.0 25.0Q55.0 25.0 55.0 21.0Z" opacity="1"/><path id="ProcessOnPath1012" fill="none" stroke="none" stroke-dasharray="none" stroke-width="0" d="M0.0 0.0L377.0 0.0L377.0 151.0L0.0 151.0Z" opacity="1"/><g id="ProcessOnG1013" transform="matrix(1.0,0.0,0.0,1.0,60.0,6.875)"><text id="ProcessOnText1014" x="0" y="13.325" fill="#000" family="Tahoma" font-family="Tahoma" font-size="13" font-style="normal" font-weight="normal" size="13" text-anchor="start" text-decoration="none">http://my-site</text></g></g><g id="ProcessOnG1015" opacity="1" transform="matrix(1.0,0.0,0.0,1.0,309.0625,208.3125)"><path id="ProcessOnPath1016" fill="#cfcfcf" stroke="#323232" stroke-dasharray="none" stroke-width="1" d="M0.0 0.0L361.5 0.0L361.5 105.5L0.0 105.5Z" opacity="1"/><g id="ProcessOnG1017" transform="matrix(1.0,0.0,0.0,1.0,10.0,12.125)"><text id="ProcessOnText1022" x="169.75" y="78.325" fill="#000" family="Tahoma" font-family="Tahoma" font-size="13" font-style="normal" font-weight="bold" size="13" text-anchor="middle" text-decoration="none">static &amp; dynamic data</text></g></g><g id="ProcessOnG1023" opacity="1" transform="matrix(1.0,0.0,0.0,1.0,323.6875,354.6875)"><path id="ProcessOnPath1024" fill="#fff" stroke="#323232" stroke-dasharray="none" stroke-width="2" d="M10.799999999999999 49.0C-9.0 35.0 3.6 24.5 8.1 21.0C6.300000000000001 3.5 28.8 0.0 37.8 7.0C45.0 -3.5 67.5 0.0 67.5 10.5C85.5 7.0 92.7 21.0 85.5 38.5C91.8 52.5 85.5 70.0 64.8 63.0C60.300000000000004 72.10000000000001 42.3 72.10000000000001 37.8 63.0C28.8 70.0 10.799999999999999 66.5 10.799999999999999 49.0Z" opacity="1"/><g id="ProcessOnG1025" transform="matrix(1.0,0.0,0.0,1.0,10.0,26.875)"><text id="ProcessOnText1026" x="34" y="13.325" fill="#000" family="Tahoma" font-family="Tahoma" font-size="13" font-style="normal" font-weight="normal" size="13" text-anchor="middle" text-decoration="none">free-host-1</text></g></g><g id="ProcessOnG1027" opacity="1" transform="matrix(1.0,0.0,0.0,1.0,445.8125,354.6875)"><path id="ProcessOnPath1028" fill="#fff" stroke="#323232" stroke-dasharray="none" stroke-width="2" d="M10.799999999999999 49.0C-9.0 35.0 3.6 24.5 8.1 21.0C6.300000000000001 3.5 28.8 0.0 37.8 7.0C45.0 -3.5 67.5 0.0 67.5 10.5C85.5 7.0 92.7 21.0 85.5 38.5C91.8 52.5 85.5 70.0 64.8 63.0C60.300000000000004 72.10000000000001 42.3 72.10000000000001 37.8 63.0C28.8 70.0 10.799999999999999 66.5 10.799999999999999 49.0Z" opacity="1"/><g id="ProcessOnG1029" transform="matrix(1.0,0.0,0.0,1.0,10.0,26.875)"><text id="ProcessOnText1030" x="34" y="13.325" fill="#000" family="Tahoma" font-family="Tahoma" font-size="13" font-style="normal" font-weight="normal" size="13" text-anchor="middle" text-decoration="none">free-host-2</text></g></g><g id="ProcessOnG1031" opacity="1" transform="matrix(1.0,0.0,0.0,1.0,568.6875,354.6875)"><path id="ProcessOnPath1032" fill="#fff" stroke="#323232" stroke-dasharray="none" stroke-width="2" d="M10.799999999999999 49.0C-9.0 35.0 3.6 24.5 8.1 21.0C6.300000000000001 3.5 28.8 0.0 37.8 7.0C45.0 -3.5 67.5 0.0 67.5 10.5C85.5 7.0 92.7 21.0 85.5 38.5C91.8 52.5 85.5 70.0 64.8 63.0C60.300000000000004 72.10000000000001 42.3 72.10000000000001 37.8 63.0C28.8 70.0 10.799999999999999 66.5 10.799999999999999 49.0Z" opacity="1"/><g id="ProcessOnG1033" transform="matrix(1.0,0.0,0.0,1.0,10.0,26.875)"><text id="ProcessOnText1034" x="34" y="13.325" fill="#000" family="Tahoma" font-family="Tahoma" font-size="13" font-style="normal" font-weight="normal" size="13" text-anchor="middle" text-decoration="none">free-host-N</text></g></g><g id="ProcessOnG1035" opacity="1" transform="matrix(1.0,0.0,0.0,1.0,744.6875,220.5625)"><path id="ProcessOnPath1036" fill="#cfcfcf" stroke="#323232" stroke-dasharray="none" stroke-width="2" d="M10.799999999999999 49.0C-9.0 35.0 3.6 24.5 8.1 21.0C6.300000000000001 3.5 28.8 0.0 37.8 7.0C45.0 -3.5 67.5 0.0 67.5 10.5C85.5 7.0 92.7 21.0 85.5 38.5C91.8 52.5 85.5 70.0 64.8 63.0C60.300000000000004 72.10000000000001 42.3 72.10000000000001 37.8 63.0C28.8 70.0 10.799999999999999 66.5 10.799999999999999 49.0Z" opacity="1"/><g id="ProcessOnG1037" transform="matrix(1.0,0.0,0.0,1.0,10.0,26.875)"><text id="ProcessOnText1038" x="34" y="13.325" fill="#000" family="Tahoma" font-family="Tahoma" font-size="13" font-style="normal" font-weight="normal" size="13" text-anchor="middle" text-decoration="none">my-site</text></g></g><g id="ProcessOnG1039"><path id="ProcessOnPath1040" fill="none" stroke="#323232" stroke-dasharray="none" stroke-width="2" marker-end="url(#ProcessOnMarker1041)" d="M744.6875 255.5625L712.6875 255.5625L712.6875 255.8125L695.9235679774998 255.8125"/></g><g id="ProcessOnG1043" opacity="1" transform="matrix(1.0,0.0,0.0,1.0,343.3125,233.8125)"><path id="ProcessOnPath1044" fill="#ffa" stroke="none" stroke-dasharray="none" stroke-width="0" d="M0.0 0.0L279.0 0.0L295.0 16.0L295.0 37.0L0.0 37.0L0.0 0.0Z" opacity="1"/><path id="ProcessOnPath1045" fill="#cdcd78" stroke="none" stroke-dasharray="none" stroke-width="0" d="M279.0 0.0L279.0 16.0L295.0 16.0Z" opacity="1"/><path id="ProcessOnPath1046" fill="none" stroke="none" stroke-dasharray="none" stroke-width="0" d="M0.0 0.0L279.0 0.0L295.0 16.0L295.0 37.0L0.0 37.0L0.0 0.0Z" opacity="1"/><g id="ProcessOnG1047" transform="matrix(1.0,0.0,0.0,1.0,10.0,10.375)"><text id="ProcessOnText1048" x="136.5" y="13.325" fill="#000" family="Tahoma" font-family="Tahoma" font-size="13" font-style="normal" font-weight="normal" size="13" text-anchor="middle" text-decoration="none">&lt;script src=//free-host-*/boot.js&gt;&lt;/script&gt;</text></g></g><g id="ProcessOnG1049"><path id="ProcessOnPath1050" fill="none" stroke="#323232" stroke-dasharray="none" stroke-width="2" marker-start="url(#ProcessOnMarker1051)" d="M377.6875 340.1514320225003L377.6875 339.6L377.6875 339.6L377.6875 323.8125"/></g><g id="ProcessOnG1053"><path id="ProcessOnPath1054" fill="none" stroke="#323232" stroke-dasharray="none" stroke-width="2" marker-start="url(#ProcessOnMarker1055)" d="M499.8125 340.1514320225003L499.8125 339.6L499.8125 339.6L499.8125 323.8125"/></g><g id="ProcessOnG1057"><path id="ProcessOnPath1058" fill="none" stroke="#323232" stroke-dasharray="none" stroke-width="2" marker-start="url(#ProcessOnMarker1059)" d="M622.6875 340.1514320225003L622.6875 339.6L622.6875 339.6L622.6875 323.8125"/></g><g id="ProcessOnG1061" opacity="1" transform="matrix(1.0,0.0,0.0,1.0,680.6875,225.5625)"><path id="ProcessOnPath1062" fill="none" stroke="none" stroke-dasharray="none" stroke-width="0" d="M0.0 0.0L64.0 0.0L64.0 28.0L0.0 28.0Z" opacity="1"/><g id="ProcessOnG1063" transform="matrix(1.0,0.0,0.0,1.0,0.0,5.875)"><text id="ProcessOnText1064" x="31" y="13.325" fill="#0c0" family="Tahoma" font-family="Tahoma" font-size="13" font-style="normal" font-weight="normal" size="13" text-anchor="middle" text-decoration="none">50 bytes</text></g></g><g id="ProcessOnG1065" opacity="1" transform="matrix(1.0,0.0,0.0,1.0,313.1875,323.8125)"><path id="ProcessOnPath1066" fill="none" stroke="none" stroke-dasharray="none" stroke-width="0" d="M0.0 0.0L64.0 0.0L64.0 28.0L0.0 28.0Z" opacity="1"/><g id="ProcessOnG1067" transform="matrix(1.0,0.0,0.0,1.0,0.0,5.875)"><text id="ProcessOnText1068" x="31" y="13.325" fill="#990" family="Tahoma" font-family="Tahoma" font-size="13" font-style="normal" font-weight="normal" size="13" text-anchor="middle" text-decoration="none">200 KB</text></g></g><g id="ProcessOnG1069" opacity="1" transform="matrix(1.0,0.0,0.0,1.0,433.6875,323.8125)"><path id="ProcessOnPath1070" fill="none" stroke="none" stroke-dasharray="none" stroke-width="0" d="M0.0 0.0L64.0 0.0L64.0 28.0L0.0 28.0Z" opacity="1"/><g id="ProcessOnG1071" transform="matrix(1.0,0.0,0.0,1.0,0.0,5.875)"><text id="ProcessOnText1072" x="31" y="13.325" fill="#990" family="Tahoma" font-family="Tahoma" font-size="13" font-style="normal" font-weight="normal" size="13" text-anchor="middle" text-decoration="none">200 KB</text></g></g><g id="ProcessOnG1073" opacity="1" transform="matrix(1.0,0.0,0.0,1.0,558.8125,323.8125)"><path id="ProcessOnPath1074" fill="none" stroke="none" stroke-dasharray="none" stroke-width="0" d="M0.0 0.0L64.0 0.0L64.0 28.0L0.0 28.0Z" opacity="1"/><g id="ProcessOnG1075" transform="matrix(1.0,0.0,0.0,1.0,0.0,5.875)"><text id="ProcessOnText1076" x="31" y="13.325" fill="#990" family="Tahoma" font-family="Tahoma" font-size="13" font-style="normal" font-weight="normal" size="13" text-anchor="middle" text-decoration="none">200 KB</text></g></g></g></g></svg>