<svg xmlns="http://www.w3.org/2000/svg" xmlns:xlink="http://www.w3.org/1999/xlink" id="processonSvg1000" width="656.813" height="279" viewBox="384.594 269.5 656.813 279"><defs id="ProcessOnDefs1001"><marker id="ProcessOnMarker1039" markerHeight="10.551" markerUnits="userSpaceOnUse" markerWidth="16.236" orient="auto" refX="15.236" refY="3.899" viewBox="-1 -1.376 16.236 10.551"><path id="ProcessOnPath1040" fill="#323232" stroke="#323232" stroke-width="2" d="M12.0 3.8990363547948754L0.0 7.798072709589751V0.0Z" transform="matrix(-1.0,1.2246467991473532E-16,-1.2246467991473532E-16,-1.0,14.23606797749979,7.798072709589751)"/></marker><marker id="ProcessOnMarker1041" markerHeight="10.551" markerUnits="userSpaceOnUse" markerWidth="16.236" orient="auto" refX="-1" refY="3.899" viewBox="-1 -1.376 16.236 10.551"><path id="ProcessOnPath1042" fill="#323232" stroke="#323232" stroke-width="2" d="M12.0 3.8990363547948754L0.0 7.798072709589751V0.0Z" transform="matrix(1.0,0.0,0.0,1.0,0.0,0.0)"/></marker><marker id="ProcessOnMarker1045" markerHeight="10.551" markerUnits="userSpaceOnUse" markerWidth="16.236" orient="auto" refX="15.236" refY="3.899" viewBox="-1 -1.376 16.236 10.551"><path id="ProcessOnPath1046" fill="#323232" stroke="#323232" stroke-width="2" d="M12.0 3.8990363547948754L0.0 7.798072709589751V0.0Z" transform="matrix(-1.0,1.2246467991473532E-16,-1.2246467991473532E-16,-1.0,14.23606797749979,7.798072709589751)"/></marker><marker id="ProcessOnMarker1047" markerHeight="10.551" markerUnits="userSpaceOnUse" markerWidth="16.236" orient="auto" refX="-1" refY="3.899" viewBox="-1 -1.376 16.236 10.551"><path id="ProcessOnPath1048" fill="#323232" stroke="#323232" stroke-width="2" d="M12.0 3.8990363547948754L0.0 7.798072709589751V0.0Z" transform="matrix(1.0,0.0,0.0,1.0,0.0,0.0)"/></marker><marker id="ProcessOnMarker1051" markerHeight="10.551" markerUnits="userSpaceOnUse" markerWidth="16.236" orient="auto" refX="15.236" refY="3.899" viewBox="-1 -1.376 16.236 10.551"><path id="ProcessOnPath1052" fill="#323232" stroke="#323232" stroke-width="2" d="M12.0 3.8990363547948754L0.0 7.798072709589751V0.0Z" transform="matrix(-1.0,1.2246467991473532E-16,-1.2246467991473532E-16,-1.0,14.23606797749979,7.798072709589751)"/></marker><marker id="ProcessOnMarker1053" markerHeight="10.551" markerUnits="userSpaceOnUse" markerWidth="16.236" orient="auto" refX="-1" refY="3.899" viewBox="-1 -1.376 16.236 10.551"><path id="ProcessOnPath1054" fill="#323232" stroke="#323232" stroke-width="2" d="M12.0 3.8990363547948754L0.0 7.798072709589751V0.0Z" transform="matrix(1.0,0.0,0.0,1.0,0.0,0.0)"/></marker><marker id="ProcessOnMarker1067" markerHeight="10.551" markerUnits="userSpaceOnUse" markerWidth="16.236" orient="auto" refX="-1" refY="3.899" viewBox="-1 -1.376 16.236 10.551"><path id="ProcessOnPath1068" fill="#323232" stroke="#323232" stroke-width="2" d="M12.0 3.8990363547948754L0.0 7.798072709589751V0.0Z" transform="matrix(1.0,0.0,0.0,1.0,0.0,0.0)"/></marker><marker id="ProcessOnMarker1089" markerHeight="10.551" markerUnits="userSpaceOnUse" markerWidth="16.236" orient="auto" refX="-1" refY="3.899" viewBox="-1 -1.376 16.236 10.551"><path id="ProcessOnPath1090" fill="#323232" stroke="#323232" stroke-width="2" d="M12.0 3.8990363547948754L0.0 7.798072709589751V0.0Z" transform="matrix(1.0,0.0,0.0,1.0,0.0,0.0)"/></marker></defs><g id="ProcessOnG1002"><path id="ProcessOnPath1003" fill="none" d="M384.59375 269.5H1041.40625V548.5H384.59375V269.5Z"/><g id="ProcessOnG1004"><g id="ProcessOnG1005" opacity="1" transform="matrix(1.0,0.0,0.0,1.0,404.59375,329.5)"><path id="ProcessOnPath1006" fill="#fff" stroke="#dadada" stroke-dasharray="none" stroke-width="2" d="M0.0 4.0Q0.0 0.0 4.0 0.0L169.75 0.0Q173.75 0.0 173.75 4.0L173.75 148.0Q173.75 152.0 169.75 152.0L4.0 152.0Q0.0 152.0 0.0 148.0Z" opacity="1"/><path id="ProcessOnPath1007" fill="#dadada" stroke="#dadada" stroke-dasharray="none" stroke-width="2" d="M0.0 30.0L0.0 4.0Q0.0 0.0 4.0 0.0L169.75 0.0Q173.75 0.0 173.75 4.0L173.75 30.0Z" opacity="1"/><path id="ProcessOnPath1008" fill="#fff" stroke="none" stroke-dasharray="none" stroke-width="0" d="M10.0 15.0C10.0 10.0 18.0 10.0 18.0 15.0C18.0 20.0 10.0 20.0 10.0 15.0Z" opacity="1"/><path id="ProcessOnPath1009" fill="#fff" stroke="none" stroke-dasharray="none" stroke-width="0" d="M23.0 15.0C23.0 10.0 31.0 10.0 31.0 15.0C31.0 20.0 23.0 20.0 23.0 15.0Z" opacity="1"/><path id="ProcessOnPath1010" fill="#fff" stroke="none" stroke-dasharray="none" stroke-width="0" d="M36.0 15.0C36.0 10.0 44.0 10.0 44.0 15.0C44.0 20.0 36.0 20.0 36.0 15.0Z" opacity="1"/><path id="ProcessOnPath1011" fill="#fff" stroke="none" stroke-dasharray="none" stroke-width="0" d="M55.0 9.0Q55.0 5.0 59.0 5.0L164.75 5.0Q168.75 5.0 168.75 9.0L168.75 21.0Q168.75 25.0 164.75 25.0L59.0 25.0Q55.0 25.0 55.0 21.0Z" opacity="1"/><path id="ProcessOnPath1012" fill="none" stroke="none" stroke-dasharray="none" stroke-width="0" d="M0.0 0.0L173.75 0.0L173.75 152.0L0.0 152.0Z" opacity="1"/><g id="ProcessOnG1013" transform="matrix(1.0,0.0,0.0,1.0,60.0,6.875)"><text id="ProcessOnText1014" x="0" y="13.325" fill="#000" family="Tahoma" font-family="Tahoma" font-size="13" font-style="normal" font-weight="normal" size="13" text-anchor="start" text-decoration="none">my-site</text></g></g><g id="ProcessOnG1015" opacity="1" transform="matrix(1.0,0.0,0.0,1.0,444.96875,374.0)"><path id="ProcessOnPath1016" fill="#fff" stroke="#8a8a8a" stroke-dasharray="none" stroke-width="2" d="M0.0 0.0L93.0 0.0L93.0 90.5L0.0 90.5Z" opacity="1"/><path id="ProcessOnPath1017" fill="#505050" stroke="#505050" stroke-dasharray="none" stroke-width="1" d="M61.53846153846153 21.3125C76.53846153846153 21.3125 76.53846153846153 43.3125 61.53846153846153 43.3125C46.53846153846153 43.3125 46.53846153846153 21.3125 61.53846153846153 21.3125Z" opacity="1"/><path id="ProcessOnPath1018" fill="#505050" stroke="none" stroke-dasharray="none" stroke-width="0" d="M30.0 60.5L31.0 40.0L46.5 45.25L58.125 36.2L63.0 60.5Z" opacity="1"/><path id="ProcessOnPath1019" fill="none" stroke="none" stroke-dasharray="none" stroke-width="0" d="M0.0 0.0L93.0 0.0L93.0 90.5L0.0 90.5Z" opacity="1"/></g><g id="ProcessOnG1020" opacity="1" transform="matrix(1.0,0.0,0.0,1.0,855.59375,289.5)"><path id="ProcessOnPath1021" fill="#fff" stroke="#323232" stroke-dasharray="none" stroke-width="2" d="M10.799999999999999 49.0C-9.0 35.0 3.6 24.5 8.1 21.0C6.300000000000001 3.5 28.8 0.0 37.8 7.0C45.0 -3.5 67.5 0.0 67.5 10.5C85.5 7.0 92.7 21.0 85.5 38.5C91.8 52.5 85.5 70.0 64.8 63.0C60.300000000000004 72.10000000000001 42.3 72.10000000000001 37.8 63.0C28.8 70.0 10.799999999999999 66.5 10.799999999999999 49.0Z" opacity="1"/><g id="ProcessOnG1022" transform="matrix(1.0,0.0,0.0,1.0,10.0,26.875)"><text id="ProcessOnText1023" x="34" y="13.325" fill="#000" family="Tahoma" font-family="Tahoma" font-size="13" font-style="normal" font-weight="normal" size="13" text-anchor="middle" text-decoration="none">free-host-1</text></g></g><g id="ProcessOnG1024" opacity="1" transform="matrix(1.0,0.0,0.0,1.0,855.59375,376.25)"><path id="ProcessOnPath1025" fill="#fff" stroke="#323232" stroke-dasharray="none" stroke-width="2" d="M10.799999999999999 49.0C-9.0 35.0 3.6 24.5 8.1 21.0C6.300000000000001 3.5 28.8 0.0 37.8 7.0C45.0 -3.5 67.5 0.0 67.5 10.5C85.5 7.0 92.7 21.0 85.5 38.5C91.8 52.5 85.5 70.0 64.8 63.0C60.300000000000004 72.10000000000001 42.3 72.10000000000001 37.8 63.0C28.8 70.0 10.799999999999999 66.5 10.799999999999999 49.0Z" opacity="1"/><g id="ProcessOnG1026" transform="matrix(1.0,0.0,0.0,1.0,10.0,26.875)"><text id="ProcessOnText1027" x="34" y="13.325" fill="#000" family="Tahoma" font-family="Tahoma" font-size="13" font-style="normal" font-weight="normal" size="13" text-anchor="middle" text-decoration="none">free-host-2</text></g></g><g id="ProcessOnG1028" opacity="1" transform="matrix(1.0,0.0,0.0,1.0,855.59375,458.5)"><path id="ProcessOnPath1029" fill="#fff" stroke="#323232" stroke-dasharray="none" stroke-width="2" d="M10.799999999999999 49.0C-9.0 35.0 3.6 24.5 8.1 21.0C6.300000000000001 3.5 28.8 0.0 37.8 7.0C45.0 -3.5 67.5 0.0 67.5 10.5C85.5 7.0 92.7 21.0 85.5 38.5C91.8 52.5 85.5 70.0 64.8 63.0C60.300000000000004 72.10000000000001 42.3 72.10000000000001 37.8 63.0C28.8 70.0 10.799999999999999 66.5 10.799999999999999 49.0Z" opacity="1"/><g id="ProcessOnG1030" transform="matrix(1.0,0.0,0.0,1.0,10.0,26.875)"><text id="ProcessOnText1031" x="34" y="13.325" fill="#000" family="Tahoma" font-family="Tahoma" font-size="13" font-style="normal" font-weight="normal" size="13" text-anchor="middle" text-decoration="none">free-host-N</text></g></g><g id="ProcessOnG1032" opacity="1" transform="matrix(1.0,0.0,0.0,1.0,761.3125,481.5)"><path id="ProcessOnPath1033" fill="none" stroke="none" stroke-dasharray="none" stroke-width="0" d="M0.0 0.0L72.25 0.0L72.25 33.0L0.0 33.0Z" opacity="1"/><g id="ProcessOnG1034" transform="matrix(1.0,0.0,0.0,1.0,0.0,0.25)"><text id="ProcessOnText1035" x="35.125" y="13.325" fill="#994c00" family="Tahoma" font-family="Tahoma" font-size="13" font-style="normal" font-weight="normal" size="13" text-anchor="middle" text-decoration="none">Rang:</text><text id="ProcessOnText1036" x="35.125" y="29.575" fill="#994c00" family="Tahoma" font-family="Tahoma" font-size="13" font-style="normal" font-weight="normal" size="13" text-anchor="middle" text-decoration="none">200 - 300KB</text></g></g><g id="ProcessOnG1037"><path id="ProcessOnPath1038" fill="none" stroke="#323232" stroke-dasharray="none" stroke-width="2" marker-end="url(#ProcessOnMarker1041)" marker-start="url(#ProcessOnMarker1039)" d="M841.3303363184302 329.8565658367467L755.3571636815698 362.1434341632533"/></g><g id="ProcessOnG1043"><path id="ProcessOnPath1044" fill="none" stroke="#323232" stroke-dasharray="none" stroke-width="2" marker-end="url(#ProcessOnMarker1047)" marker-start="url(#ProcessOnMarker1045)" d="M840.3576820225002 411.25L798.78125 411.25L798.78125 411.25L757.2048179774998 411.25"/></g><g id="ProcessOnG1049"><path id="ProcessOnPath1050" fill="none" stroke="#323232" stroke-dasharray="none" stroke-width="2" marker-end="url(#ProcessOnMarker1053)" marker-start="url(#ProcessOnMarker1051)" d="M841.3716328539091 488.03473227573795L755.3158671460909 454.96526772426205"/></g><g id="ProcessOnG1055" opacity="1" transform="matrix(1.0,0.0,0.0,1.0,761.875,292.5)"><path id="ProcessOnPath1056" fill="none" stroke="none" stroke-dasharray="none" stroke-width="0" d="M0.0 0.0L75.8125 0.0L75.8125 31.0L0.0 31.0Z" opacity="1"/><g id="ProcessOnG1057" transform="matrix(1.0,0.0,0.0,1.0,0.0,-0.75)"><text id="ProcessOnText1058" x="36.906" y="13.325" fill="#994c00" family="Tahoma" font-family="Tahoma" font-size="13" font-style="normal" font-weight="normal" size="13" text-anchor="middle" text-decoration="none">Rang:</text><text id="ProcessOnText1059" x="36.906" y="29.575" fill="#994c00" family="Tahoma" font-family="Tahoma" font-size="13" font-style="normal" font-weight="normal" size="13" text-anchor="middle" text-decoration="none">0 - 100KB</text></g></g><g id="ProcessOnG1060" opacity="1" transform="matrix(1.0,0.0,0.0,1.0,757.1875,374.25)"><path id="ProcessOnPath1061" fill="none" stroke="none" stroke-dasharray="none" stroke-width="0" d="M0.0 0.0L80.5 0.0L80.5 28.5L0.0 28.5Z" opacity="1"/><g id="ProcessOnG1062" transform="matrix(1.0,0.0,0.0,1.0,0.0,-2.0)"><text id="ProcessOnText1063" x="39.25" y="13.325" fill="#994c00" family="Tahoma" font-family="Tahoma" font-size="13" font-style="normal" font-weight="normal" size="13" text-anchor="middle" text-decoration="none">Rang:</text><text id="ProcessOnText1064" x="39.25" y="29.575" fill="#994c00" family="Tahoma" font-family="Tahoma" font-size="13" font-style="normal" font-weight="normal" size="13" text-anchor="middle" text-decoration="none">100 - 200KB</text></g></g><g id="ProcessOnG1065"><path id="ProcessOnPath1066" fill="none" stroke="#323232" stroke-dasharray="none" stroke-width="2" marker-end="url(#ProcessOnMarker1067)" d="M652.09375 447.5L615.21875 447.5L615.21875 447.5L593.5798179774998 447.5"/></g><g id="ProcessOnG1069" opacity="1" transform="matrix(1.0,0.0,0.0,1.0,644.53125,489.5)"><path id="ProcessOnPath1070" fill="none" stroke="none" stroke-dasharray="none" stroke-width="0" d="M0.0 0.0L106.0 0.0L106.0 34.0L0.0 34.0Z" opacity="1"/><g id="ProcessOnG1071" transform="matrix(1.0,0.0,0.0,1.0,0.0,8.875)"><text id="ProcessOnText1072" x="52" y="13.325" fill="#000" family="Tahoma" font-family="Tahoma" font-size="13" font-style="normal" font-weight="normal" size="13" text-anchor="middle" text-decoration="none">Service Worker</text></g></g><g id="ProcessOnG1073" opacity="1" transform="matrix(1.0,0.0,0.0,1.0,587.09375,417.5)"><path id="ProcessOnPath1074" fill="none" stroke="none" stroke-dasharray="none" stroke-width="0" d="M0.0 0.0L64.0 0.0L64.0 28.0L0.0 28.0Z" opacity="1"/><g id="ProcessOnG1075" transform="matrix(1.0,0.0,0.0,1.0,0.0,5.875)"><text id="ProcessOnText1076" x="31" y="13.325" fill="#6c0" family="Tahoma" font-family="Tahoma" font-size="13" font-style="normal" font-weight="normal" size="13" text-anchor="middle" text-decoration="none">300KB/s</text></g></g><g id="ProcessOnG1077" opacity="1" transform="matrix(1.0,0.0,0.0,1.0,589.09375,338.0)"><path id="ProcessOnPath1078" fill="none" stroke="none" stroke-dasharray="none" stroke-width="0" d="M0.0 0.0L53.0 0.0L53.0 28.0L0.0 28.0Z" opacity="1"/><g id="ProcessOnG1079" transform="matrix(1.0,0.0,0.0,1.0,0.0,5.875)"><text id="ProcessOnText1080" x="25.5" y="13.325" fill="#000" family="Tahoma" font-family="Tahoma" font-size="13" font-style="normal" font-weight="normal" size="13" text-anchor="middle" text-decoration="none">GET</text></g></g><g id="ProcessOnG1081" opacity="1" transform="matrix(1.0,0.0,0.0,1.0,653.09375,335.25)"><path id="ProcessOnPath1082" fill="#e5e5e5" stroke="#323232" stroke-dasharray="none" stroke-width="2" d="M0.0 0.0L88.875 0.0L88.875 152.0L0.0 152.0Z" opacity="1"/></g><g id="ProcessOnG1083" opacity="1" transform="matrix(1.0,0.0,0.0,1.0,662.03125,397.25)"><path id="ProcessOnPath1084" fill="#fff" stroke="#000" stroke-dasharray="none" stroke-width="1" d="M0.0 0.0L71.0 0.0L71.0 28.0L0.0 28.0Z" opacity="1"/><g id="ProcessOnG1085" transform="matrix(1.0,0.0,0.0,1.0,10.0,5.875)"><text id="ProcessOnText1086" x="24.5" y="13.325" fill="#000" family="Tahoma" font-family="Tahoma" font-size="13" font-style="normal" font-weight="bold" size="13" text-anchor="middle" text-decoration="none">boost</text></g></g><g id="ProcessOnG1087"><path id="ProcessOnPath1088" fill="none" stroke="#323232" stroke-dasharray="none" stroke-width="2" marker-end="url(#ProcessOnMarker1089)" d="M578.34375 366.5L615.96875 366.5L615.96875 366.5L638.3576820225002 366.5"/></g><g id="ProcessOnG1091" opacity="1" transform="matrix(1.0,0.0,0.0,1.0,945.59375,304.25)"><path id="ProcessOnPath1092" fill="none" stroke="none" stroke-dasharray="none" stroke-width="0" d="M0.0 0.0L75.8125 0.0L75.8125 31.0L0.0 31.0Z" opacity="1"/><g id="ProcessOnG1093" transform="matrix(1.0,0.0,0.0,1.0,0.0,7.375)"><text id="ProcessOnText1094" x="36.906" y="13.325" fill="#990" family="Tahoma" font-family="Tahoma" font-size="13" font-style="normal" font-weight="normal" size="13" text-anchor="middle" text-decoration="none">100KB/s</text></g></g><g id="ProcessOnG1095" opacity="1" transform="matrix(1.0,0.0,0.0,1.0,945.59375,392.0)"><path id="ProcessOnPath1096" fill="none" stroke="none" stroke-dasharray="none" stroke-width="0" d="M0.0 0.0L75.8125 0.0L75.8125 31.0L0.0 31.0Z" opacity="1"/><g id="ProcessOnG1097" transform="matrix(1.0,0.0,0.0,1.0,0.0,7.375)"><text id="ProcessOnText1098" x="36.906" y="13.325" fill="#990" family="Tahoma" font-family="Tahoma" font-size="13" font-style="normal" font-weight="normal" size="13" text-anchor="middle" text-decoration="none">100KB/s</text></g></g><g id="ProcessOnG1099" opacity="1" transform="matrix(1.0,0.0,0.0,1.0,945.59375,478.0)"><path id="ProcessOnPath1100" fill="none" stroke="none" stroke-dasharray="none" stroke-width="0" d="M0.0 0.0L75.8125 0.0L75.8125 31.0L0.0 31.0Z" opacity="1"/><g id="ProcessOnG1101" transform="matrix(1.0,0.0,0.0,1.0,0.0,7.375)"><text id="ProcessOnText1102" x="36.906" y="13.325" fill="#990" family="Tahoma" font-family="Tahoma" font-size="13" font-style="normal" font-weight="normal" size="13" text-anchor="middle" text-decoration="none">100KB/s</text></g></g></g></g></svg>