<svg xmlns="http://www.w3.org/2000/svg" xmlns:xlink="http://www.w3.org/1999/xlink" id="processonSvg1000" width="565.25" height="185" viewBox="430.375 316.5 565.25 185"><defs id="ProcessOnDefs1001"><marker id="ProcessOnMarker1027" markerHeight="10.551" markerUnits="userSpaceOnUse" markerWidth="16.236" orient="auto" refX="-1" refY="3.899" viewBox="-1 -1.376 16.236 10.551"><path id="ProcessOnPath1028" fill="#323232" stroke="#323232" stroke-width="2" d="M12.0 3.8990363547948754L0.0 7.798072709589751V0.0Z" transform="matrix(1.0,0.0,0.0,1.0,0.0,0.0)"/></marker><marker id="ProcessOnMarker1040" markerHeight="10.551" markerUnits="userSpaceOnUse" markerWidth="16.236" orient="auto" refX="-1" refY="3.899" viewBox="-1 -1.376 16.236 10.551"><path id="ProcessOnPath1041" fill="#323232" stroke="#323232" stroke-width="2" d="M12.0 3.8990363547948754L0.0 7.798072709589751V0.0Z" transform="matrix(1.0,0.0,0.0,1.0,0.0,0.0)"/></marker><marker id="ProcessOnMarker1052" markerHeight="10.551" markerUnits="userSpaceOnUse" markerWidth="16.236" orient="auto" refX="-1" refY="3.899" viewBox="-1 -1.376 16.236 10.551"><path id="ProcessOnPath1053" fill="#323232" stroke="#323232" stroke-width="2" d="M12.0 3.8990363547948754L0.0 7.798072709589751V0.0Z" transform="matrix(1.0,0.0,0.0,1.0,0.0,0.0)"/></marker><marker id="ProcessOnMarker1064" markerHeight="10.551" markerUnits="userSpaceOnUse" markerWidth="16.236" orient="auto" refX="-1" refY="3.899" viewBox="-1 -1.376 16.236 10.551"><path id="ProcessOnPath1065" fill="#323232" stroke="#323232" stroke-width="2" d="M12.0 3.8990363547948754L0.0 7.798072709589751V0.0Z" transform="matrix(1.0,0.0,0.0,1.0,0.0,0.0)"/></marker></defs><g id="ProcessOnG1002"><path id="ProcessOnPath1003" fill="none" d="M430.375 316.5H995.625V501.5H430.375V316.5Z"/><g id="ProcessOnG1004"><g id="ProcessOnG1005" opacity="1" transform="matrix(1.0,0.0,0.0,1.0,450.375,441.5)"><path id="ProcessOnPath1006" fill="none" stroke="none" stroke-dasharray="none" stroke-width="0" d="M0.0 0.0L160.0 0.0L160.0 40.0L0.0 40.0Z" opacity="1"/><g id="ProcessOnG1007" transform="matrix(1.0,0.0,0.0,1.0,0.0,11.25)"><text id="ProcessOnText1008" x="79" y="14.35" fill="#000" family="Tahoma" font-family="Tahoma" font-size="14" font-style="normal" font-weight="bold" size="14" text-anchor="middle" text-decoration="none">Client</text></g></g><g id="ProcessOnG1009" opacity="1" transform="matrix(1.0,0.0,0.0,1.0,450.375,390.75)"><path id="ProcessOnPath1010" fill="none" stroke="none" stroke-dasharray="none" stroke-width="0" d="M0.0 0.0L160.0 0.0L160.0 40.0L0.0 40.0Z" opacity="1"/><g id="ProcessOnG1011" transform="matrix(1.0,0.0,0.0,1.0,0.0,11.25)"><text id="ProcessOnText1012" x="79" y="14.35" fill="#000" family="Tahoma" font-family="Tahoma" font-size="14" font-style="normal" font-weight="bold" size="14" text-anchor="middle" text-decoration="none">Proxy</text></g></g><g id="ProcessOnG1013" opacity="1" transform="matrix(1.0,0.0,0.0,1.0,450.375,338.5)"><path id="ProcessOnPath1014" fill="none" stroke="none" stroke-dasharray="none" stroke-width="0" d="M0.0 0.0L160.0 0.0L160.0 40.0L0.0 40.0Z" opacity="1"/><g id="ProcessOnG1015" transform="matrix(1.0,0.0,0.0,1.0,0.0,11.25)"><text id="ProcessOnText1016" x="79" y="14.35" fill="#000" family="Tahoma" font-family="Tahoma" font-size="14" font-style="normal" font-weight="bold" size="14" text-anchor="middle" text-decoration="none">Server</text></g></g><g id="ProcessOnG1017" opacity="1" transform="matrix(1.0,0.0,0.0,1.0,577.625,336.5)"><path id="ProcessOnPath1018" fill="#fff" stroke="#323232" stroke-dasharray="none" stroke-width="2" d="M0.0 0.0L73.0 0.0L73.0 42.0L0.0 42.0Z" opacity="1"/><g id="ProcessOnG1019" transform="matrix(1.0,0.0,0.0,1.0,10.0,12.875)"><text id="ProcessOnText1020" x="25.5" y="13.325" fill="#000" family="Tahoma" font-family="Tahoma" font-size="13" font-style="normal" font-weight="normal" size="13" text-anchor="middle" text-decoration="none">&lt;html</text></g></g><g id="ProcessOnG1021" opacity="1" transform="matrix(1.0,0.0,0.0,1.0,614.625,439.5)"><path id="ProcessOnPath1022" fill="#fff" stroke="#323232" stroke-dasharray="none" stroke-width="2" d="M0.0 0.0L73.0 0.0L73.0 42.0L0.0 42.0Z" opacity="1"/><g id="ProcessOnG1023" transform="matrix(1.0,0.0,0.0,1.0,10.0,12.875)"><text id="ProcessOnText1024" x="25.5" y="13.325" fill="#000" family="Tahoma" font-family="Tahoma" font-size="13" font-style="normal" font-weight="normal" size="13" text-anchor="middle" text-decoration="none">&lt;html</text></g></g><g id="ProcessOnG1025"><path id="ProcessOnPath1026" fill="none" stroke="#323232" stroke-dasharray="none" stroke-width="2" marker-end="url(#ProcessOnMarker1027)" d="M614.125 378.5L643.2233873771565 426.47301702720404"/></g><g id="ProcessOnG1029" opacity="1" transform="matrix(1.0,0.0,0.0,1.0,668.625,336.5)"><path id="ProcessOnPath1030" fill="#fff" stroke="#323232" stroke-dasharray="none" stroke-width="2" d="M0.0 0.0L73.0 0.0L73.0 42.0L0.0 42.0Z" opacity="1"/><g id="ProcessOnG1031" transform="matrix(1.0,0.0,0.0,1.0,10.0,12.875)"><text id="ProcessOnText1032" x="25.5" y="13.325" fill="#000" family="Tahoma" font-family="Tahoma" font-size="13" font-style="normal" font-weight="normal" size="13" text-anchor="middle" text-decoration="none">&lt;head</text></g></g><g id="ProcessOnG1033" opacity="1" transform="matrix(1.0,0.0,0.0,1.0,705.625,439.5)"><path id="ProcessOnPath1034" fill="#e5e5e5" stroke="#323232" stroke-dasharray="none" stroke-width="2" d="M0.0 0.0L90.0 0.0L90.0 42.0L0.0 42.0Z" opacity="1"/><g id="ProcessOnG1035" transform="matrix(1.0,0.0,0.0,1.0,10.0,4.75)"><text id="ProcessOnText1036" x="34" y="13.325" fill="#000" family="Tahoma" font-family="Tahoma" font-size="13" font-style="normal" font-weight="normal" size="13" text-anchor="middle" text-decoration="none">&lt;script&gt;</text><text id="ProcessOnText1037" x="34" y="29.575" fill="#000" family="Tahoma" font-family="Tahoma" font-size="13" font-style="normal" font-weight="normal" size="13" text-anchor="middle" text-decoration="none">&lt;head</text></g></g><g id="ProcessOnG1038"><path id="ProcessOnPath1039" fill="none" stroke="#323232" stroke-dasharray="none" stroke-width="2" marker-end="url(#ProcessOnMarker1040)" d="M705.125 378.5L741.5154244563233 427.287162457928"/></g><g id="ProcessOnG1042" opacity="1" transform="matrix(1.0,0.0,0.0,1.0,758.625,336.5)"><path id="ProcessOnPath1043" fill="#fff" stroke="#323232" stroke-dasharray="none" stroke-width="2" d="M0.0 0.0L73.0 0.0L73.0 42.0L0.0 42.0Z" opacity="1"/><g id="ProcessOnG1044" transform="matrix(1.0,0.0,0.0,1.0,10.0,12.875)"><text id="ProcessOnText1045" x="25.5" y="13.325" fill="#000" family="Tahoma" font-family="Tahoma" font-size="13" font-style="normal" font-weight="normal" size="13" text-anchor="middle" text-decoration="none">&lt;body</text></g></g><g id="ProcessOnG1046" opacity="1" transform="matrix(1.0,0.0,0.0,1.0,812.625,439.5)"><path id="ProcessOnPath1047" fill="#fff" stroke="#323232" stroke-dasharray="none" stroke-width="2" d="M0.0 0.0L73.0 0.0L73.0 42.0L0.0 42.0Z" opacity="1"/><g id="ProcessOnG1048" transform="matrix(1.0,0.0,0.0,1.0,10.0,12.875)"><text id="ProcessOnText1049" x="25.5" y="13.325" fill="#000" family="Tahoma" font-family="Tahoma" font-size="13" font-style="normal" font-weight="normal" size="13" text-anchor="middle" text-decoration="none">&lt;body</text></g></g><g id="ProcessOnG1050"><path id="ProcessOnPath1051" fill="none" stroke="#323232" stroke-dasharray="none" stroke-width="2" marker-end="url(#ProcessOnMarker1052)" d="M795.125 378.5L839.0259446453085 428.0918078400707"/></g><g id="ProcessOnG1054" opacity="1" transform="matrix(1.0,0.0,0.0,1.0,848.625,336.5)"><path id="ProcessOnPath1055" fill="#fff" stroke="#323232" stroke-dasharray="none" stroke-width="2" d="M0.0 0.0L73.0 0.0L73.0 42.0L0.0 42.0Z" opacity="1"/><g id="ProcessOnG1056" transform="matrix(1.0,0.0,0.0,1.0,10.0,12.875)"><text id="ProcessOnText1057" x="25.5" y="13.325" fill="#000" family="Tahoma" font-family="Tahoma" font-size="13" font-style="normal" font-weight="normal" size="13" text-anchor="middle" text-decoration="none">......</text></g></g><g id="ProcessOnG1058" opacity="1" transform="matrix(1.0,0.0,0.0,1.0,902.625,439.5)"><path id="ProcessOnPath1059" fill="#fff" stroke="#323232" stroke-dasharray="none" stroke-width="2" d="M0.0 0.0L73.0 0.0L73.0 42.0L0.0 42.0Z" opacity="1"/><g id="ProcessOnG1060" transform="matrix(1.0,0.0,0.0,1.0,10.0,12.875)"><text id="ProcessOnText1061" x="25.5" y="13.325" fill="#000" family="Tahoma" font-family="Tahoma" font-size="13" font-style="normal" font-weight="normal" size="13" text-anchor="middle" text-decoration="none">......</text></g></g><g id="ProcessOnG1062"><path id="ProcessOnPath1063" fill="none" stroke="#323232" stroke-dasharray="none" stroke-width="2" marker-end="url(#ProcessOnMarker1064)" d="M885.125 378.5L929.0259446453085 428.0918078400707"/></g><g id="ProcessOnG1066" opacity="1" transform="matrix(1.0,0.0,0.0,1.0,618.75,390.75)"><path id="ProcessOnPath1067" fill="none" stroke="none" stroke-dasharray="none" stroke-width="0" d="M0.0 0.0L160.0 0.0L160.0 40.0L0.0 40.0Z" opacity="1"/><g id="ProcessOnG1068" transform="matrix(1.0,0.0,0.0,1.0,0.0,11.875)"><text id="ProcessOnText1069" x="79" y="13.325" fill="#c00" family="Tahoma" font-family="Tahoma" font-size="13" font-style="normal" font-weight="bold" size="13" text-anchor="middle" text-decoration="none">inject</text></g></g></g></g></svg>