<svg xmlns="http://www.w3.org/2000/svg" xmlns:xlink="http://www.w3.org/1999/xlink" id="processonSvg1000" width="664.125" height="234" viewBox="380.938 232 664.125 234"><defs id="ProcessOnDefs1001"><marker id="ProcessOnMarker1035" markerHeight="10.551" markerUnits="userSpaceOnUse" markerWidth="16.236" orient="auto" refX="15.236" refY="3.899" viewBox="-1 -1.376 16.236 10.551"><path id="ProcessOnPath1036" fill="#323232" stroke="#323232" stroke-width="2" d="M12.0 3.8990363547948754L0.0 7.798072709589751V0.0Z" transform="matrix(-1.0,1.2246467991473532E-16,-1.2246467991473532E-16,-1.0,14.23606797749979,7.798072709589751)"/></marker><marker id="ProcessOnMarker1037" markerHeight="10.551" markerUnits="userSpaceOnUse" markerWidth="16.236" orient="auto" refX="-1" refY="3.899" viewBox="-1 -1.376 16.236 10.551"><path id="ProcessOnPath1038" fill="#323232" stroke="#323232" stroke-width="2" d="M12.0 3.8990363547948754L0.0 7.798072709589751V0.0Z" transform="matrix(1.0,0.0,0.0,1.0,0.0,0.0)"/></marker><marker id="ProcessOnMarker1041" markerHeight="10.551" markerUnits="userSpaceOnUse" markerWidth="16.236" orient="auto" refX="-1" refY="3.899" viewBox="-1 -1.376 16.236 10.551"><path id="ProcessOnPath1042" fill="#323232" stroke="#323232" stroke-width="2" d="M12.0 3.8990363547948754L0.0 7.798072709589751V0.0Z" transform="matrix(1.0,0.0,0.0,1.0,0.0,0.0)"/></marker><marker id="ProcessOnMarker1059" markerHeight="10.551" markerUnits="userSpaceOnUse" markerWidth="16.236" orient="auto" refX="-1" refY="3.899" viewBox="-1 -1.376 16.236 10.551"><path id="ProcessOnPath1060" fill="#323232" stroke="#323232" stroke-width="2" d="M12.0 3.8990363547948754L0.0 7.798072709589751V0.0Z" transform="matrix(1.0,0.0,0.0,1.0,0.0,0.0)"/></marker><marker id="ProcessOnMarker1071" markerHeight="10.551" markerUnits="userSpaceOnUse" markerWidth="16.236" orient="auto" refX="15.236" refY="3.899" viewBox="-1 -1.376 16.236 10.551"><path id="ProcessOnPath1072" fill="#323232" stroke="#323232" stroke-width="2" d="M12.0 3.8990363547948754L0.0 7.798072709589751V0.0Z" transform="matrix(-1.0,1.2246467991473532E-16,-1.2246467991473532E-16,-1.0,14.23606797749979,7.798072709589751)"/></marker><marker id="ProcessOnMarker1073" markerHeight="10.551" markerUnits="userSpaceOnUse" markerWidth="16.236" orient="auto" refX="-1" refY="3.899" viewBox="-1 -1.376 16.236 10.551"><path id="ProcessOnPath1074" fill="#323232" stroke="#323232" stroke-width="2" d="M12.0 3.8990363547948754L0.0 7.798072709589751V0.0Z" transform="matrix(1.0,0.0,0.0,1.0,0.0,0.0)"/></marker></defs><g id="ProcessOnG1002"><path id="ProcessOnPath1003" fill="none" d="M380.9375 232.0H1045.0625V466.0H380.9375V232.0Z"/><g id="ProcessOnG1004"><g id="ProcessOnG1005" opacity="1" transform="matrix(1.0,0.0,0.0,1.0,400.9375,252.0)"><path id="ProcessOnPath1006" fill="#fff" stroke="#dadada" stroke-dasharray="none" stroke-width="2" d="M0.0 4.0Q0.0 0.0 4.0 0.0L169.75 0.0Q173.75 0.0 173.75 4.0L173.75 148.0Q173.75 152.0 169.75 152.0L4.0 152.0Q0.0 152.0 0.0 148.0Z" opacity="1"/><path id="ProcessOnPath1007" fill="#dadada" stroke="#dadada" stroke-dasharray="none" stroke-width="2" d="M0.0 30.0L0.0 4.0Q0.0 0.0 4.0 0.0L169.75 0.0Q173.75 0.0 173.75 4.0L173.75 30.0Z" opacity="1"/><path id="ProcessOnPath1008" fill="#fff" stroke="none" stroke-dasharray="none" stroke-width="0" d="M10.0 15.0C10.0 10.0 18.0 10.0 18.0 15.0C18.0 20.0 10.0 20.0 10.0 15.0Z" opacity="1"/><path id="ProcessOnPath1009" fill="#fff" stroke="none" stroke-dasharray="none" stroke-width="0" d="M23.0 15.0C23.0 10.0 31.0 10.0 31.0 15.0C31.0 20.0 23.0 20.0 23.0 15.0Z" opacity="1"/><path id="ProcessOnPath1010" fill="#fff" stroke="none" stroke-dasharray="none" stroke-width="0" d="M36.0 15.0C36.0 10.0 44.0 10.0 44.0 15.0C44.0 20.0 36.0 20.0 36.0 15.0Z" opacity="1"/><path id="ProcessOnPath1011" fill="#fff" stroke="none" stroke-dasharray="none" stroke-width="0" d="M55.0 9.0Q55.0 5.0 59.0 5.0L164.75 5.0Q168.75 5.0 168.75 9.0L168.75 21.0Q168.75 25.0 164.75 25.0L59.0 25.0Q55.0 25.0 55.0 21.0Z" opacity="1"/><path id="ProcessOnPath1012" fill="none" stroke="none" stroke-dasharray="none" stroke-width="0" d="M0.0 0.0L173.75 0.0L173.75 152.0L0.0 152.0Z" opacity="1"/><g id="ProcessOnG1013" transform="matrix(1.0,0.0,0.0,1.0,60.0,6.875)"><text id="ProcessOnText1014" x="0" y="13.325" fill="#000" family="Tahoma" font-family="Tahoma" font-size="13" font-style="normal" font-weight="normal" size="13" text-anchor="start" text-decoration="none">my-site</text></g></g><g id="ProcessOnG1015" opacity="1" transform="matrix(1.0,0.0,0.0,1.0,441.3125,296.5)"><path id="ProcessOnPath1016" fill="#fff" stroke="#8a8a8a" stroke-dasharray="none" stroke-width="2" d="M0.0 0.0L93.0 0.0L93.0 90.5L0.0 90.5Z" opacity="1"/><path id="ProcessOnPath1017" fill="#505050" stroke="#505050" stroke-dasharray="none" stroke-width="1" d="M61.53846153846153 21.3125C76.53846153846153 21.3125 76.53846153846153 43.3125 61.53846153846153 43.3125C46.53846153846153 43.3125 46.53846153846153 21.3125 61.53846153846153 21.3125Z" opacity="1"/><path id="ProcessOnPath1018" fill="#505050" stroke="none" stroke-dasharray="none" stroke-width="0" d="M30.0 60.5L31.0 40.0L46.5 45.25L58.125 36.2L63.0 60.5Z" opacity="1"/><path id="ProcessOnPath1019" fill="none" stroke="none" stroke-dasharray="none" stroke-width="0" d="M0.0 0.0L93.0 0.0L93.0 90.5L0.0 90.5Z" opacity="1"/></g><g id="ProcessOnG1020" opacity="1" transform="matrix(1.0,0.0,0.0,1.0,791.3125,255.25)"><path id="ProcessOnPath1021" fill="#fff" stroke="#323232" stroke-dasharray="none" stroke-width="2" d="M10.799999999999999 49.0C-9.0 35.0 3.6 24.5 8.1 21.0C6.300000000000001 3.5 28.8 0.0 37.8 7.0C45.0 -3.5 67.5 0.0 67.5 10.5C85.5 7.0 92.7 21.0 85.5 38.5C91.8 52.5 85.5 70.0 64.8 63.0C60.300000000000004 72.10000000000001 42.3 72.10000000000001 37.8 63.0C28.8 70.0 10.799999999999999 66.5 10.799999999999999 49.0Z" opacity="1"/><g id="ProcessOnG1022" transform="matrix(1.0,0.0,0.0,1.0,10.0,26.875)"><text id="ProcessOnText1023" x="34" y="13.325" fill="#000" family="Tahoma" font-family="Tahoma" font-size="13" font-style="normal" font-weight="normal" size="13" text-anchor="middle" text-decoration="none">free-host-1</text></g></g><g id="ProcessOnG1024" opacity="1" transform="matrix(1.0,0.0,0.0,1.0,861.4375,337.0)"><path id="ProcessOnPath1025" fill="#fff" stroke="#323232" stroke-dasharray="none" stroke-width="2" d="M10.799999999999999 49.0C-9.0 35.0 3.6 24.5 8.1 21.0C6.300000000000001 3.5 28.8 0.0 37.8 7.0C45.0 -3.5 67.5 0.0 67.5 10.5C85.5 7.0 92.7 21.0 85.5 38.5C91.8 52.5 85.5 70.0 64.8 63.0C60.300000000000004 72.10000000000001 42.3 72.10000000000001 37.8 63.0C28.8 70.0 10.799999999999999 66.5 10.799999999999999 49.0Z" opacity="1"/><g id="ProcessOnG1026" transform="matrix(1.0,0.0,0.0,1.0,10.0,26.875)"><text id="ProcessOnText1027" x="34" y="13.325" fill="#000" family="Tahoma" font-family="Tahoma" font-size="13" font-style="normal" font-weight="normal" size="13" text-anchor="middle" text-decoration="none">free-host-N</text></g></g><g id="ProcessOnG1028" opacity="1" transform="matrix(1.0,0.0,0.0,1.0,760.6875,374.0)"><path id="ProcessOnPath1029" fill="none" stroke="none" stroke-dasharray="none" stroke-width="0" d="M0.0 0.0L72.25 0.0L72.25 33.0L0.0 33.0Z" opacity="1"/><g id="ProcessOnG1030" transform="matrix(1.0,0.0,0.0,1.0,0.0,0.25)"><text id="ProcessOnText1031" x="35.125" y="13.325" fill="#994c00" family="Tahoma" font-family="Tahoma" font-size="13" font-style="normal" font-weight="normal" size="13" text-anchor="middle" text-decoration="none">Rang:</text><text id="ProcessOnText1032" x="35.125" y="29.575" fill="#994c00" family="Tahoma" font-family="Tahoma" font-size="13" font-style="normal" font-weight="normal" size="13" text-anchor="middle" text-decoration="none">50 - 500KB</text></g></g><g id="ProcessOnG1033"><path id="ProcessOnPath1034" fill="none" stroke="#323232" stroke-dasharray="none" stroke-width="2" marker-end="url(#ProcessOnMarker1037)" marker-start="url(#ProcessOnMarker1035)" d="M846.2014320225002 372.0L794.4375 372.0L794.4375 372.0L742.6735679774998 372.0"/></g><g id="ProcessOnG1039"><path id="ProcessOnPath1040" fill="none" stroke="#323232" stroke-dasharray="none" stroke-width="2" marker-end="url(#ProcessOnMarker1041)" d="M648.4375 370.0L611.5625 370.0L611.5625 370.0L589.9235679774998 370.0"/></g><g id="ProcessOnG1043" opacity="1" transform="matrix(1.0,0.0,0.0,1.0,630.875,412.0)"><path id="ProcessOnPath1044" fill="none" stroke="none" stroke-dasharray="none" stroke-width="0" d="M0.0 0.0L106.0 0.0L106.0 34.0L0.0 34.0Z" opacity="1"/><g id="ProcessOnG1045" transform="matrix(1.0,0.0,0.0,1.0,0.0,8.875)"><text id="ProcessOnText1046" x="52" y="13.325" fill="#000" family="Tahoma" font-family="Tahoma" font-size="13" font-style="normal" font-weight="normal" size="13" text-anchor="middle" text-decoration="none">Service Worker</text></g></g><g id="ProcessOnG1047" opacity="1" transform="matrix(1.0,0.0,0.0,1.0,579.9375,260.5)"><path id="ProcessOnPath1048" fill="none" stroke="none" stroke-dasharray="none" stroke-width="0" d="M0.0 0.0L53.0 0.0L53.0 28.0L0.0 28.0Z" opacity="1"/><g id="ProcessOnG1049" transform="matrix(1.0,0.0,0.0,1.0,0.0,5.875)"><text id="ProcessOnText1050" x="25.5" y="13.325" fill="#000" family="Tahoma" font-family="Tahoma" font-size="13" font-style="normal" font-weight="normal" size="13" text-anchor="middle" text-decoration="none">GET</text></g></g><g id="ProcessOnG1051" opacity="1" transform="matrix(1.0,0.0,0.0,1.0,639.4375,257.75)"><path id="ProcessOnPath1052" fill="#e5e5e5" stroke="#323232" stroke-dasharray="none" stroke-width="2" d="M0.0 0.0L88.875 0.0L88.875 152.0L0.0 152.0Z" opacity="1"/></g><g id="ProcessOnG1053" opacity="1" transform="matrix(1.0,0.0,0.0,1.0,648.375,316.0)"><path id="ProcessOnPath1054" fill="#fff" stroke="#000" stroke-dasharray="none" stroke-width="1" d="M0.0 0.0L71.0 0.0L71.0 28.0L0.0 28.0Z" opacity="1"/><g id="ProcessOnG1055" transform="matrix(1.0,0.0,0.0,1.0,10.0,5.875)"><text id="ProcessOnText1056" x="24.5" y="13.325" fill="#000" family="Tahoma" font-family="Tahoma" font-size="13" font-style="normal" font-weight="bold" size="13" text-anchor="middle" text-decoration="none">proxy</text></g></g><g id="ProcessOnG1057"><path id="ProcessOnPath1058" fill="none" stroke="#323232" stroke-dasharray="none" stroke-width="2" marker-end="url(#ProcessOnMarker1059)" d="M574.6875 289.0L607.0625 289.0L607.0625 289.0L624.2014320225002 289.0"/></g><g id="ProcessOnG1061" opacity="1" transform="matrix(1.0,0.0,0.0,1.0,873.4375,274.75)"><path id="ProcessOnPath1062" fill="none" stroke="none" stroke-dasharray="none" stroke-width="0" d="M0.0 0.0L75.8125 0.0L75.8125 31.0L0.0 31.0Z" opacity="1"/><g id="ProcessOnG1063" transform="matrix(1.0,0.0,0.0,1.0,0.0,7.375)"><text id="ProcessOnText1064" x="36.906" y="13.325" fill="#c00" family="Tahoma" font-family="Tahoma" font-size="13" font-style="normal" font-weight="normal" size="13" text-anchor="middle" text-decoration="none">10KB/s</text></g></g><g id="ProcessOnG1065" opacity="1" transform="matrix(1.0,0.0,0.0,1.0,949.25,356.5)"><path id="ProcessOnPath1066" fill="none" stroke="none" stroke-dasharray="none" stroke-width="0" d="M0.0 0.0L75.8125 0.0L75.8125 31.0L0.0 31.0Z" opacity="1"/><g id="ProcessOnG1067" transform="matrix(1.0,0.0,0.0,1.0,0.0,7.375)"><text id="ProcessOnText1068" x="36.906" y="13.325" fill="#990" family="Tahoma" font-family="Tahoma" font-size="13" font-style="normal" font-weight="normal" size="13" text-anchor="middle" text-decoration="none">100KB/s</text></g></g><g id="ProcessOnG1069"><path id="ProcessOnPath1070" fill="none" stroke="#323232" stroke-dasharray="none" stroke-width="2" marker-end="url(#ProcessOnMarker1073)" marker-start="url(#ProcessOnMarker1071)" d="M776.0764320225002 290.25L759.8125 290.25L759.8125 290.25L743.5485679774998 290.25"/></g></g></g></svg>