<svg xmlns="http://www.w3.org/2000/svg" xmlns:xlink="http://www.w3.org/1999/xlink" id="processonSvg1000" width="492.563" height="162.317" viewBox="358.719 216.841 492.563 162.317"><defs id="ProcessOnDefs1001"><marker id="ProcessOnMarker1027" markerHeight="10.551" markerUnits="userSpaceOnUse" markerWidth="16.236" orient="auto" refX="15.236" refY="3.899" viewBox="-1 -1.376 16.236 10.551"><path id="ProcessOnPath1028" fill="#323232" stroke="#323232" stroke-width="2" d="M12.0 3.8990363547948754L0.0 7.798072709589751V0.0Z" transform="matrix(-1.0,1.2246467991473532E-16,-1.2246467991473532E-16,-1.0,14.23606797749979,7.798072709589751)"/></marker><marker id="ProcessOnMarker1029" markerHeight="10.551" markerUnits="userSpaceOnUse" markerWidth="16.236" orient="auto" refX="-1" refY="3.899" viewBox="-1 -1.376 16.236 10.551"><path id="ProcessOnPath1030" fill="#323232" stroke="#323232" stroke-width="2" d="M12.0 3.8990363547948754L0.0 7.798072709589751V0.0Z" transform="matrix(1.0,0.0,0.0,1.0,0.0,0.0)"/></marker></defs><g id="ProcessOnG1002"><path id="ProcessOnPath1003" fill="none" d="M358.71875 216.84146940825985H851.28125V379.15853059174015H358.71875V216.84146940825985Z"/><g id="ProcessOnG1004"><g id="ProcessOnG1005" opacity="1" transform="matrix(1.0,0.0,0.0,1.0,378.71875,236.84146940825985)"><path id="ProcessOnPath1006" fill="#fff" stroke="#dadada" stroke-dasharray="none" stroke-width="2" d="M0.0 4.0Q0.0 0.0 4.0 0.0L248.4375 0.0Q252.4375 0.0 252.4375 4.0L252.4375 118.31706118348029Q252.4375 122.31706118348029 248.4375 122.31706118348029L4.0 122.31706118348029Q0.0 122.31706118348029 0.0 118.31706118348029Z" opacity="1"/><path id="ProcessOnPath1007" fill="#dadada" stroke="#dadada" stroke-dasharray="none" stroke-width="2" d="M0.0 30.0L0.0 4.0Q0.0 0.0 4.0 0.0L248.4375 0.0Q252.4375 0.0 252.4375 4.0L252.4375 30.0Z" opacity="1"/><path id="ProcessOnPath1008" fill="#fff" stroke="none" stroke-dasharray="none" stroke-width="0" d="M10.0 15.0C10.0 10.0 18.0 10.0 18.0 15.0C18.0 20.0 10.0 20.0 10.0 15.0Z" opacity="1"/><path id="ProcessOnPath1009" fill="#fff" stroke="none" stroke-dasharray="none" stroke-width="0" d="M23.0 15.0C23.0 10.0 31.0 10.0 31.0 15.0C31.0 20.0 23.0 20.0 23.0 15.0Z" opacity="1"/><path id="ProcessOnPath1010" fill="#fff" stroke="none" stroke-dasharray="none" stroke-width="0" d="M36.0 15.0C36.0 10.0 44.0 10.0 44.0 15.0C44.0 20.0 36.0 20.0 36.0 15.0Z" opacity="1"/><path id="ProcessOnPath1011" fill="#fff" stroke="none" stroke-dasharray="none" stroke-width="0" d="M55.0 9.0Q55.0 5.0 59.0 5.0L243.4375 5.0Q247.4375 5.0 247.4375 9.0L247.4375 21.0Q247.4375 25.0 243.4375 25.0L59.0 25.0Q55.0 25.0 55.0 21.0Z" opacity="1"/><path id="ProcessOnPath1012" fill="none" stroke="none" stroke-dasharray="none" stroke-width="0" d="M0.0 0.0L252.4375 0.0L252.4375 122.31706118348029L0.0 122.31706118348029Z" opacity="1"/><g id="ProcessOnG1013" transform="matrix(1.0,0.0,0.0,1.0,60.0,6.875)"><text id="ProcessOnText1014" x="0" y="13.325" fill="#000" family="Tahoma" font-family="Tahoma" font-size="13" font-style="normal" font-weight="normal" size="13" text-anchor="start" text-decoration="none">https://my-site</text></g></g><g id="ProcessOnG1015" opacity="1" transform="matrix(1.0,0.0,0.0,1.0,398.28125,284.11419668098756)"><path id="ProcessOnPath1016" fill="#b3ff66" stroke="#323232" stroke-dasharray="none" stroke-width="2" d="M0.0 0.0L207.3125 0.0L207.3125 53.34710743801543L0.0 53.34710743801543Z" opacity="1"/><g id="ProcessOnG1017" transform="matrix(1.0,0.0,0.0,1.0,10.0,10.423553719007714)"><text id="ProcessOnText1018" x="92.656" y="13.325" fill="#000" family="Tahoma" font-family="Tahoma" font-size="13" font-style="normal" font-weight="normal" size="13" text-anchor="middle" text-decoration="none">Flash</text><text id="ProcessOnText1019" x="92.656" y="29.575" fill="#000" family="Tahoma" font-family="Tahoma" font-size="13" font-style="normal" font-weight="normal" size="13" text-anchor="middle" text-decoration="none">(https://github.io/xx/proxy.swf)</text></g></g><g id="ProcessOnG1020" opacity="1" transform="matrix(1.0,0.0,0.0,1.0,729.8751173929372,275.7877503999953)"><path id="ProcessOnPath1021" fill="#ff0" stroke="#323232" stroke-dasharray="none" stroke-width="2" d="M12.168735912847533 49.0C-10.140613260706278 35.0 4.056245304282511 24.5 9.12655193463565 21.0C7.098429282494394 3.5 32.44996243426009 0.0 42.59057569496636 7.0C50.703066303531386 -3.5 76.05459945529708 0.0 76.05459945529708 10.5C96.33582597670963 7.0 104.44831658527465 21.0 96.33582597670963 38.5C103.43425525920404 52.5 96.33582597670963 70.0 73.0124154770852 63.0C67.94210884673207 72.10000000000001 47.6608823253195 72.10000000000001 42.59057569496636 63.0C32.44996243426009 70.0 12.168735912847533 66.5 12.168735912847533 49.0Z" opacity="1"/><g id="ProcessOnG1022" transform="matrix(1.0,0.0,0.0,1.0,10.0,18.75)"><text id="ProcessOnText1023" x="39.703" y="13.325" fill="#000" family="Tahoma" font-family="Tahoma" font-size="13" font-style="normal" font-weight="normal" size="13" text-anchor="middle" text-decoration="none">http://a.com</text><text id="ProcessOnText1024" x="39.703" y="29.575" fill="#000" family="Tahoma" font-family="Tahoma" font-size="13" font-style="normal" font-weight="normal" size="13" text-anchor="middle" text-decoration="none">(cross.xml)</text></g></g><g id="ProcessOnG1025"><path id="ProcessOnPath1026" fill="none" stroke="#323232" stroke-dasharray="none" stroke-width="2" marker-end="url(#ProcessOnMarker1029)" marker-start="url(#ProcessOnMarker1027)" d="M620.8298179774998 310.787750399995L714.6390494154374 310.787750399996"/></g><g id="ProcessOnG1031" opacity="1" transform="matrix(1.0,0.0,0.0,1.0,633.65625,288.15937106776664)"><path id="ProcessOnPath1032" fill="none" stroke="none" stroke-dasharray="none" stroke-width="0" d="M0.0 0.0L75.625 0.0L75.625 19.681257864466716L0.0 19.681257864466716Z" opacity="1"/><g id="ProcessOnG1033" transform="matrix(1.0,0.0,0.0,1.0,0.0,1.7156289322333578)"><text id="ProcessOnText1034" x="36.813" y="13.325" fill="#000" family="Tahoma" font-family="Tahoma" font-size="13" font-style="normal" font-weight="bold" size="13" text-anchor="middle" text-decoration="none">URLStream</text></g></g></g></g></svg>