<svg xmlns="http://www.w3.org/2000/svg" xmlns:xlink="http://www.w3.org/1999/xlink" id="processonSvg1000" width="552.969" height="221.455" viewBox="328.516 209.273 552.969 221.455"><defs id="ProcessOnDefs1001"><marker id="ProcessOnMarker1026" markerHeight="10.551" markerUnits="userSpaceOnUse" markerWidth="16.236" orient="auto" refX="15.236" refY="3.899" viewBox="-1 -1.376 16.236 10.551"><path id="ProcessOnPath1027" fill="#323232" stroke="#323232" stroke-width="2" d="M12.0 3.8990363547948754L0.0 7.798072709589751V0.0Z" transform="matrix(-1.0,1.2246467991473532E-16,-1.2246467991473532E-16,-1.0,14.23606797749979,7.798072709589751)"/></marker><marker id="ProcessOnMarker1028" markerHeight="10.551" markerUnits="userSpaceOnUse" markerWidth="16.236" orient="auto" refX="-1" refY="3.899" viewBox="-1 -1.376 16.236 10.551"><path id="ProcessOnPath1029" fill="#323232" stroke="#323232" stroke-width="2" d="M12.0 3.8990363547948754L0.0 7.798072709589751V0.0Z" transform="matrix(1.0,0.0,0.0,1.0,0.0,0.0)"/></marker><marker id="ProcessOnMarker1037" markerHeight="10.551" markerUnits="userSpaceOnUse" markerWidth="16.236" orient="auto" refX="15.236" refY="3.899" viewBox="-1 -1.376 16.236 10.551"><path id="ProcessOnPath1038" fill="#323232" stroke="#323232" stroke-width="2" d="M12.0 3.8990363547948754L0.0 7.798072709589751V0.0Z" transform="matrix(-1.0,1.2246467991473532E-16,-1.2246467991473532E-16,-1.0,14.23606797749979,7.798072709589751)"/></marker><marker id="ProcessOnMarker1039" markerHeight="10.551" markerUnits="userSpaceOnUse" markerWidth="16.236" orient="auto" refX="-1" refY="3.899" viewBox="-1 -1.376 16.236 10.551"><path id="ProcessOnPath1040" fill="#323232" stroke="#323232" stroke-width="2" d="M12.0 3.8990363547948754L0.0 7.798072709589751V0.0Z" transform="matrix(1.0,0.0,0.0,1.0,0.0,0.0)"/></marker><marker id="ProcessOnMarker1055" markerHeight="10.551" markerUnits="userSpaceOnUse" markerWidth="16.236" orient="auto" refX="15.236" refY="3.899" viewBox="-1 -1.376 16.236 10.551"><path id="ProcessOnPath1056" fill="#323232" stroke="#323232" stroke-width="2" d="M12.0 3.8990363547948754L0.0 7.798072709589751V0.0Z" transform="matrix(-1.0,1.2246467991473532E-16,-1.2246467991473532E-16,-1.0,14.23606797749979,7.798072709589751)"/></marker><marker id="ProcessOnMarker1057" markerHeight="10.551" markerUnits="userSpaceOnUse" markerWidth="16.236" orient="auto" refX="-1" refY="3.899" viewBox="-1 -1.376 16.236 10.551"><path id="ProcessOnPath1058" fill="#323232" stroke="#323232" stroke-width="2" d="M12.0 3.8990363547948754L0.0 7.798072709589751V0.0Z" transform="matrix(1.0,0.0,0.0,1.0,0.0,0.0)"/></marker></defs><g id="ProcessOnG1002"><path id="ProcessOnPath1003" fill="none" d="M328.51568369646867 209.27272727272725H881.4843163035314V430.727272727273H328.5156836964686V209.27272727272725Z"/><g id="ProcessOnG1004"><g id="ProcessOnG1005" opacity="1" transform="matrix(1.0,0.0,0.0,1.0,348.51568369646867,229.27272727272725)"><path id="ProcessOnPath1006" fill="#fff" stroke="#dadada" stroke-dasharray="none" stroke-width="2" d="M0.0 4.0Q0.0 0.0 4.0 0.0L342.0 0.0Q346.0 0.0 346.0 4.0L346.0 121.45454545454572Q346.0 125.45454545454572 342.0 125.45454545454572L4.0 125.45454545454572Q0.0 125.45454545454572 0.0 121.45454545454572Z" opacity="1"/><path id="ProcessOnPath1007" fill="#dadada" stroke="#dadada" stroke-dasharray="none" stroke-width="2" d="M0.0 30.0L0.0 4.0Q0.0 0.0 4.0 0.0L342.0 0.0Q346.0 0.0 346.0 4.0L346.0 30.0Z" opacity="1"/><path id="ProcessOnPath1008" fill="#fff" stroke="none" stroke-dasharray="none" stroke-width="0" d="M10.0 15.0C10.0 10.0 18.0 10.0 18.0 15.0C18.0 20.0 10.0 20.0 10.0 15.0Z" opacity="1"/><path id="ProcessOnPath1009" fill="#fff" stroke="none" stroke-dasharray="none" stroke-width="0" d="M23.0 15.0C23.0 10.0 31.0 10.0 31.0 15.0C31.0 20.0 23.0 20.0 23.0 15.0Z" opacity="1"/><path id="ProcessOnPath1010" fill="#fff" stroke="none" stroke-dasharray="none" stroke-width="0" d="M36.0 15.0C36.0 10.0 44.0 10.0 44.0 15.0C44.0 20.0 36.0 20.0 36.0 15.0Z" opacity="1"/><path id="ProcessOnPath1011" fill="#fff" stroke="none" stroke-dasharray="none" stroke-width="0" d="M55.0 9.0Q55.0 5.0 59.0 5.0L337.0 5.0Q341.0 5.0 341.0 9.0L341.0 21.0Q341.0 25.0 337.0 25.0L59.0 25.0Q55.0 25.0 55.0 21.0Z" opacity="1"/><path id="ProcessOnPath1012" fill="none" stroke="none" stroke-dasharray="none" stroke-width="0" d="M0.0 0.0L346.0 0.0L346.0 125.45454545454572L0.0 125.45454545454572Z" opacity="1"/><g id="ProcessOnG1013" transform="matrix(1.0,0.0,0.0,1.0,60.0,6.875)"><text id="ProcessOnText1014" x="0" y="13.325" fill="#000" family="Tahoma" font-family="Tahoma" font-size="13" font-style="normal" font-weight="normal" size="13" text-anchor="start" text-decoration="none">https://my-site</text></g></g><g id="ProcessOnG1015" opacity="1" transform="matrix(1.0,0.0,0.0,1.0,507.51568369646867,276.5454545454552)"><path id="ProcessOnPath1016" fill="#b3ff66" stroke="#323232" stroke-dasharray="none" stroke-width="2" d="M0.0 0.0L166.4375 0.0L166.4375 53.12310606060487L0.0 53.12310606060487Z" opacity="1"/><g id="ProcessOnG1017" transform="matrix(1.0,0.0,0.0,1.0,10.0,10.311553030302434)"><text id="ProcessOnText1018" x="72.219" y="13.325" fill="#000" family="Tahoma" font-family="Tahoma" font-size="13" font-style="normal" font-weight="normal" size="13" text-anchor="middle" text-decoration="none">&lt;iframe&gt;</text><text id="ProcessOnText1019" x="72.219" y="29.575" fill="#000" family="Tahoma" font-family="Tahoma" font-size="13" font-style="normal" font-weight="normal" size="13" text-anchor="middle" text-decoration="none">https://a.com/proxy.html</text></g></g><g id="ProcessOnG1020" opacity="1" transform="matrix(1.0,0.0,0.0,1.0,757.2345510894061,268.2190082644629)"><path id="ProcessOnPath1021" fill="#b3ff66" stroke="#323232" stroke-dasharray="none" stroke-width="2" d="M12.509971825695038 46.89460709817806C-10.424976521412532 33.496147927270044 4.169990608565013 23.44730354908903 9.382478869271278 20.097688756362025C7.297483564988773 3.349614792727005 33.3599248685201 0.0 43.784901389932635 6.69922958545401C52.12488260706266 -3.349614792727005 78.18732391059399 0.0 78.18732391059399 10.048844378181013C99.03727695341905 6.69922958545401 107.37725817054908 20.097688756362025 99.03727695341905 36.845762719997055C106.33476051840783 50.24422189090507 99.03727695341905 66.99229585454009 75.05983095417022 60.29306626908608C69.84734269346397 69.00206473017629 48.997389650638894 69.00206473017629 43.784901389932635 60.29306626908608C33.3599248685201 66.99229585454009 12.509971825695038 63.64268106181308 12.509971825695038 46.89460709817806Z" opacity="1"/><g id="ProcessOnG1022" transform="matrix(1.0,0.0,0.0,1.0,10.0,25.371147927270044)"><text id="ProcessOnText1023" x="41.125" y="13.325" fill="#000" family="Tahoma" font-family="Tahoma" font-size="13" font-style="normal" font-weight="normal" size="13" text-anchor="middle" text-decoration="none">https://a.com</text></g></g><g id="ProcessOnG1024"><path id="ProcessOnPath1025" fill="none" stroke="#323232" stroke-dasharray="none" stroke-width="2" marker-end="url(#ProcessOnMarker1028)" marker-start="url(#ProcessOnMarker1026)" d="M689.1871243091311 302.852408233916L742.0006104767435 301.9697555335746"/></g><g id="ProcessOnG1030" opacity="1" transform="matrix(1.0,0.0,0.0,1.0,363.01568369646867,274.04545454545496)"><path id="ProcessOnPath1031" fill="#fff" stroke="#323232" stroke-dasharray="none" stroke-width="2" d="M0.0 0.0L76.0 0.0L76.0 58.18181818181802L0.0 58.18181818181802Z" opacity="1"/><g id="ProcessOnG1032" transform="matrix(1.0,0.0,0.0,1.0,10.0,12.840909090909008)"><text id="ProcessOnText1033" x="27" y="13.325" fill="#000" family="Tahoma" font-family="Tahoma" font-size="13" font-style="normal" font-weight="normal" size="13" text-anchor="middle" text-decoration="none">sw</text><text id="ProcessOnText1034" x="27" y="29.575" fill="#000" family="Tahoma" font-family="Tahoma" font-size="13" font-style="normal" font-weight="normal" size="13" text-anchor="middle" text-decoration="none">helper</text></g></g><g id="ProcessOnG1035"><path id="ProcessOnPath1036" fill="none" stroke="#323232" stroke-dasharray="none" stroke-width="2" marker-end="url(#ProcessOnMarker1039)" marker-start="url(#ProcessOnMarker1037)" d="M492.27961711809627 303.1135370778576L454.2517502748411 303.12983413426343"/></g><g id="ProcessOnG1041" opacity="1" transform="matrix(1.0,0.0,0.0,1.0,439.01568369646867,281.86419668098824)"><path id="ProcessOnPath1042" fill="none" stroke="none" stroke-dasharray="none" stroke-width="0" d="M0.0 0.0L69.125 0.0L69.125 20.0L0.0 20.0Z" opacity="1"/><g id="ProcessOnG1043" transform="matrix(1.0,0.0,0.0,1.0,0.0,1.875)"><text id="ProcessOnText1044" x="33.563" y="13.325" fill="#000" family="Tahoma" font-family="Tahoma" font-size="13" font-style="normal" font-weight="bold" size="13" text-anchor="middle" text-decoration="none">msg</text></g></g><g id="ProcessOnG1045" opacity="1" transform="matrix(1.0,0.0,0.0,1.0,683.0156836964686,281.86419668098824)"><path id="ProcessOnPath1046" fill="none" stroke="none" stroke-dasharray="none" stroke-width="0" d="M0.0 0.0L69.125 0.0L69.125 20.0L0.0 20.0Z" opacity="1"/><g id="ProcessOnG1047" transform="matrix(1.0,0.0,0.0,1.0,0.0,1.875)"><text id="ProcessOnText1048" x="33.563" y="13.325" fill="#000" family="Tahoma" font-family="Tahoma" font-size="13" font-style="normal" font-weight="bold" size="13" text-anchor="middle" text-decoration="none">ajax</text></g></g><g id="ProcessOnG1049" opacity="1" transform="matrix(1.0,0.0,0.0,1.0,348.51568369646867,381.5681818181838)"><path id="ProcessOnPath1050" fill="#cfcfcf" stroke="#323232" stroke-dasharray="none" stroke-width="2" d="M0.0 0.0L346.0 0.0L346.0 29.159090909089173L0.0 29.159090909089173Z" opacity="1"/><g id="ProcessOnG1051" transform="matrix(1.0,0.0,0.0,1.0,10.0,6.454545454544586)"><text id="ProcessOnText1052" x="162" y="13.325" fill="#000" family="Tahoma" font-family="Tahoma" font-size="13" font-style="normal" font-weight="normal" size="13" text-anchor="middle" text-decoration="none">SW</text></g></g><g id="ProcessOnG1053"><path id="ProcessOnPath1054" fill="none" stroke="#323232" stroke-dasharray="none" stroke-width="2" marker-end="url(#ProcessOnMarker1057)" marker-start="url(#ProcessOnMarker1055)" d="M401.16957552238665 347.462563493153L401.3617918705507 366.4919819613929"/></g></g></g></svg>